<?xml version="1.0" encoding="UTF-8" standalone="no"?>
<svg
   xmlns:dc="http://purl.org/dc/elements/1.1/"
   xmlns:cc="http://creativecommons.org/ns#"
   xmlns:rdf="http://www.w3.org/1999/02/22-rdf-syntax-ns#"
   xmlns:svg="http://www.w3.org/2000/svg"
   xmlns="http://www.w3.org/2000/svg"
   id="svg4796"
   version="1.1"
   viewBox="0 0 23.360283 7.1155982"
   height="7.1155982mm"
   width="23.360283mm">
  <defs
     id="defs4790" />
  <metadata
     id="metadata4793">
    <rdf:RDF>
      <cc:Work
         rdf:about="">
        <dc:format>image/svg+xml</dc:format>
        <dc:type
           rdf:resource="http://purl.org/dc/dcmitype/StillImage" />
        <dc:title></dc:title>
      </cc:Work>
    </rdf:RDF>
  </metadata>
  <g
     transform="translate(280.04323,-285.88268)"
     id="layer1">
    <g
       transform="matrix(0.14007075,0,0,0.14007075,-235.87912,271.27406)"
       id="g6359"
       style="display:inline;opacity:1">
      <path
         style="fill:#000000;fill-opacity:1;stroke:none;stroke-width:0.26458335;stroke-opacity:1"
         d="m -239.31502,141.42736 c -0.086,1.59844 -0.24157,1.95425 -0.57097,2.61712 -0.79673,1.60325 -2.35162,3.15524 -3.94513,3.93778 -1.16237,0.57081 -1.64471,0.6224 -6.6675,0.71314 l -5.41448,0.0978 3.29782,3.13811 3.29781,3.13811 -5.07813,0.0126 -5.07812,0.0126 -6.69583,-6.60345 -6.69583,-6.60348 11.77808,-0.0111 c 10.88915,-0.0103 11.84613,-0.0476 12.67956,-0.49457 1.7269,-0.92614 1.8684,-1.55074 1.8684,-8.24778 0,-6.69703 -0.1415,-7.32163 -1.8684,-8.24778 -0.85675,-0.45948 -2.28659,-0.48346 -28.82327,-0.48346 -26.53668,0 -27.96651,0.024 -28.82327,0.48346 -1.7269,0.92615 -1.86839,1.55075 -1.86839,8.24778 0,6.69704 0.14149,7.32164 1.86839,8.24779 0.82951,0.44487 1.75719,0.48435 11.62123,0.4946 l 10.71975,0.0111 3.53438,3.43806 3.53438,3.43806 -16.36667,-0.0758 -15.38437,-0.0712 c -1.29731,-0.035 -1.51806,-0.20828 -2.27708,-0.58548 -1.5983,-0.79427 -3.1091,-2.38859 -3.90337,-3.98689 -0.61327,-1.23407 -0.62392,-1.39497 -0.7046,-10.64171 -0.0314,-3.59725 -0.0217,-6.28359 0.0294,-8.07252 -0.0184,-1.27395 0.11863,-2.62707 0.6138,-3.70651 0.17562,-0.37973 0.38574,-0.75903 0.6193,-1.12215 1.28545,-2.17292 3.61862,-2.94214 5.38419,-3.70161 3.17812,-1.36599 8.35429,-3.54171 13.97468,-5.86742 12.20429,-5.05012 16.30562,-6.63797 17.14541,-6.63797 0.83412,0 5.15708,1.65314 17.6928,6.76589 7.09548,2.89393 13.42353,5.5355 16.11071,6.7161 1.52177,0.71364 2.29725,1.38086 2.97122,2.33322 0.3256,0.46503 0.62105,0.97055 0.85756,1.47226 0.54141,1.30825 0.63137,2.77236 0.66498,3.88781 0.0537,1.84266 0.0663,4.58933 0.0352,8.09866 -0.0373,4.19337 -0.029,6.48593 -0.032,7.85972"
         id="path6334" />
      <g
         id="g6282"
         transform="matrix(1.776393,0,0,1.776393,280.95233,-10.824975)">
        <text
           id="text6272"
           y="81.313484"
           x="-288.48575"
           style="font-style:normal;font-variant:normal;font-weight:normal;font-stretch:normal;font-size:10.58333302px;line-height:6.61458302px;font-family:'Bebas Neue';-inkscape-font-specification:'Bebas Neue';letter-spacing:0px;word-spacing:0px;fill:#000000;fill-opacity:1;stroke:none;stroke-width:0.26458332"
           xml:space="preserve"><tspan
             style="font-style:normal;font-variant:normal;font-weight:bold;font-stretch:normal;font-family:'Bebas Neue';-inkscape-font-specification:'Bebas Neue Bold';stroke-width:0.26458332"
             y="81.313484"
             x="-288.48575"
             id="tspan6270">Constructive</tspan></text>
        <text
           xml:space="preserve"
           style="font-style:normal;font-variant:normal;font-weight:normal;font-stretch:normal;font-size:10.58333302px;line-height:6.61458302px;font-family:'Bebas Neue';-inkscape-font-specification:'Bebas Neue';letter-spacing:0px;word-spacing:0px;fill:#000000;fill-opacity:1;stroke:none;stroke-width:0.26458332"
           x="-288.51749"
           y="89.743217"
           id="text6276"><tspan
             id="tspan6274"
             x="-288.51749"
             y="89.743217"
             style="font-style:normal;font-variant:normal;font-weight:bold;font-stretch:normal;font-family:'Bebas Neue';-inkscape-font-specification:'Bebas Neue Bold';stroke-width:0.26458332">Realities</tspan></text>
      </g>
    </g>
  </g>
</svg>
