<?xml version="1.0" encoding="UTF-8" standalone="no"?>
<!-- Created with Inkscape (http://www.inkscape.org/) -->

<svg
   width="141.66406mm"
   height="100.99813mm"
   viewBox="0 0 141.66406 100.99813"
   version="1.1"
   id="svg5"
   inkscape:version="1.1.2 (b8e25be833, 2022-02-05)"
   sodipodi:docname="buzzword-bingo4-paths.svg"
   xmlns:inkscape="http://www.inkscape.org/namespaces/inkscape"
   xmlns:sodipodi="http://sodipodi.sourceforge.net/DTD/sodipodi-0.dtd"
   xmlns="http://www.w3.org/2000/svg"
   xmlns:svg="http://www.w3.org/2000/svg">
  <sodipodi:namedview
     id="namedview7"
     pagecolor="#505050"
     bordercolor="#eeeeee"
     borderopacity="1"
     inkscape:pageshadow="0"
     inkscape:pageopacity="0"
     inkscape:pagecheckerboard="0"
     inkscape:document-units="mm"
     showgrid="false"
     fit-margin-top="0"
     fit-margin-left="0"
     fit-margin-right="0"
     fit-margin-bottom="0"
     inkscape:zoom="1.9392936"
     inkscape:cx="308.10188"
     inkscape:cy="175.06374"
     inkscape:window-width="2560"
     inkscape:window-height="1521"
     inkscape:window-x="-9"
     inkscape:window-y="-9"
     inkscape:window-maximized="1"
     inkscape:current-layer="text429" />
  <defs
     id="defs2">
    <rect
       x="-370.79059"
       y="-81.183624"
       width="246.67331"
       height="92.892799"
       id="rect95273" />
  </defs>
  <g
     inkscape:label="Layer 1"
     inkscape:groupmode="layer"
     id="layer1"
     transform="translate(-5.8677064,-9.2223235)">
    <g
       aria-label="workflow
workflow
workflow
workflow"
       id="text429"
       style="font-size:10.5833px;line-height:1.25;font-family:'Bebas Neue';-inkscape-font-specification:'Bebas Neue';stroke-width:0.264583">
      <path
         d="m 13.327389,22.047552 h 1.545162 l 0.825498,-7.40831 h -1.015997 l -0.603248,5.884315 -0.582082,-5.884315 h -1.12183 l -0.560914,5.841982 -0.624415,-5.841982 H 10.05715 l 0.825497,7.40831 h 1.598078 l 0.423332,-3.947571 z"
         style="font-weight:bold"
         id="path307429" />
      <path
         d="m 17.349041,16.343154 c 0,-0.529165 0.232832,-0.730248 0.603248,-0.730248 0.370415,0 0.603248,0.201083 0.603248,0.730248 v 4.000487 c 0,0.529165 -0.232833,0.730248 -0.603248,0.730248 -0.370416,0 -0.603248,-0.201083 -0.603248,-0.730248 z m -1.164163,3.926404 c 0,1.185329 0.624414,1.862661 1.767411,1.862661 1.142996,0 1.767411,-0.677332 1.767411,-1.862661 v -3.852321 c 0,-1.18533 -0.624415,-1.862661 -1.767411,-1.862661 -1.142997,0 -1.767411,0.677331 -1.767411,1.862661 z"
         style="font-weight:bold"
         id="path307431" />
      <path
         d="m 24.090601,22.047552 c -0.116416,-0.275166 -0.126999,-0.539748 -0.126999,-0.89958 v -1.142997 c 0,-0.772581 -0.1905,-1.333495 -0.772581,-1.576911 0.518582,-0.243416 0.761998,-0.740831 0.761998,-1.502829 v -0.582081 c 0,-1.142997 -0.518582,-1.703912 -1.725078,-1.703912 h -1.756828 v 7.40831 h 1.164163 v -3.01624 h 0.402165 c 0.529165,0 0.761998,0.253999 0.761998,0.941913 v 1.164163 c 0,0.603248 0.04233,0.719665 0.105833,0.910164 z m -1.89441,-6.34998 c 0.412749,0 0.592665,0.232833 0.592665,0.761998 v 0.730248 c 0,0.592664 -0.264583,0.783164 -0.698498,0.783164 h -0.455082 v -2.27541 z"
         style="font-weight:bold"
         id="path307433" />
      <path
         d="m 27.382012,22.047552 h 1.195913 l -1.619245,-4.10632 1.619245,-3.30199 h -1.164163 l -1.523995,3.227907 v -3.227907 h -1.164163 v 7.40831 h 1.164163 v -2.275409 l 0.359832,-0.677331 z"
         style="font-weight:bold"
         id="path307435" />
      <path
         d="m 30.271248,15.697572 h 1.915577 v -1.05833 h -3.07974 v 7.40831 h 1.164163 v -3.058573 h 1.502829 v -1.05833 h -1.502829 z"
         style="font-weight:bold"
         id="path307437" />
      <path
         d="m 32.747739,22.047552 h 3.07974 v -1.05833 h -1.915577 v -6.34998 h -1.164163 z"
         style="font-weight:bold"
         id="path307439" />
      <path
         d="m 37.404398,16.343154 c 0,-0.529165 0.232832,-0.730248 0.603248,-0.730248 0.370415,0 0.603248,0.201083 0.603248,0.730248 v 4.000487 c 0,0.529165 -0.232833,0.730248 -0.603248,0.730248 -0.370416,0 -0.603248,-0.201083 -0.603248,-0.730248 z m -1.164163,3.926404 c 0,1.185329 0.624414,1.862661 1.767411,1.862661 1.142996,0 1.767411,-0.677332 1.767411,-1.862661 v -3.852321 c 0,-1.18533 -0.624415,-1.862661 -1.767411,-1.862661 -1.142997,0 -1.767411,0.677331 -1.767411,1.862661 z"
         style="font-weight:bold"
         id="path307441" />
      <path
         d="m 43.532128,22.047552 h 1.545162 l 0.825497,-7.40831 H 44.88679 l -0.603248,5.884315 -0.582081,-5.884315 h -1.12183 l -0.560915,5.841982 -0.624415,-5.841982 h -1.132413 l 0.825498,7.40831 h 1.598078 l 0.423332,-3.947571 z"
         style="font-weight:bold"
         id="path307443" />
      <path
         d="m 13.13689,29.212446 0.99483,6.064231 h 0.634998 l 1.18533,-7.40831 h -0.433916 l -1.068913,6.730978 -1.037163,-6.699228 h -0.518582 l -1.079496,6.720395 -1.111247,-6.752145 h -0.476248 l 1.195912,7.40831 h 0.677332 z"
         id="path307445" />
      <path
         d="m 16.671719,33.466932 c 0,1.079497 0.497415,1.873244 1.619245,1.873244 1.142996,0 1.640411,-0.793747 1.640411,-1.873244 v -3.788821 c 0,-1.079496 -0.497415,-1.873244 -1.640411,-1.873244 -1.12183,0 -1.619245,0.793748 -1.619245,1.873244 z m 0.486831,-3.820571 c 0,-0.804331 0.317499,-1.396995 1.132414,-1.396995 0.825497,0 1.153579,0.592664 1.153579,1.396995 v 3.852321 c 0,0.804331 -0.328082,1.396996 -1.153579,1.396996 -0.814915,0 -1.132414,-0.592665 -1.132414,-1.396996 z"
         id="path307447" />
      <path
         d="m 20.735711,27.868367 v 7.40831 h 0.486832 v -3.312573 h 0.772581 c 0.846663,0 1.386412,0.275166 1.386412,1.259413 v 1.164162 c 0,0.402166 0.03175,0.666748 0.158749,0.888998 h 0.507999 c -0.15875,-0.243416 -0.179916,-0.582082 -0.179916,-0.888998 V 33.2341 c 0,-0.804331 -0.306916,-1.344079 -1.068914,-1.513412 0.730248,-0.169333 1.068914,-0.666748 1.068914,-1.534578 v -0.645582 c 0,-1.047746 -0.455082,-1.672161 -1.587495,-1.672161 z m 0.486832,3.651238 v -3.20674 h 1.047746 c 0.804331,0 1.111247,0.476249 1.111247,1.269996 v 0.698498 c 0,0.99483 -0.507999,1.238246 -1.375829,1.238246 z"
         id="path307449" />
      <path
         d="m 27.858269,35.276677 h 0.507998 l -2.254243,-3.958154 2.11666,-3.450156 h -0.507998 l -2.412993,3.915821 v -3.915821 h -0.486831 v 7.40831 h 0.486831 v -2.677575 l 0.507999,-0.804331 z"
         id="path307451" />
      <path
         d="m 29.583339,31.477272 v -3.164407 h 2.328326 v -0.444498 h -2.815158 v 7.40831 h 0.486832 v -3.354906 h 1.915577 v -0.444499 z"
         id="path307453" />
      <path
         d="m 35.467659,35.276677 v -0.444499 h -2.328326 v -6.963811 h -0.486832 v 7.40831 z"
         id="path307455" />
      <path
         d="m 36.166146,33.466932 c 0,1.079497 0.497415,1.873244 1.619245,1.873244 1.142996,0 1.640411,-0.793747 1.640411,-1.873244 v -3.788821 c 0,-1.079496 -0.497415,-1.873244 -1.640411,-1.873244 -1.12183,0 -1.619245,0.793748 -1.619245,1.873244 z m 0.486832,-3.820571 c 0,-0.804331 0.317499,-1.396995 1.132413,-1.396995 0.825497,0 1.153579,0.592664 1.153579,1.396995 v 3.852321 c 0,0.804331 -0.328082,1.396996 -1.153579,1.396996 -0.814914,0 -1.132413,-0.592665 -1.132413,-1.396996 z"
         id="path307457" />
      <path
         d="m 43.045297,29.212446 0.99483,6.064231 h 0.634998 l 1.18533,-7.40831 H 45.42654 l -1.068914,6.730978 -1.037163,-6.699228 h -0.518582 l -1.079496,6.720395 -1.111247,-6.752145 H 40.13489 l 1.195913,7.40831 h 0.677331 z"
         id="path307459" />
      <path
         d="m 13.13689,42.441571 0.99483,6.06423 h 0.634998 l 1.18533,-7.40831 h -0.433916 l -1.068913,6.730979 -1.037163,-6.699229 h -0.518582 l -1.079496,6.720396 -1.111247,-6.752146 h -0.476248 l 1.195912,7.40831 h 0.677332 z"
         id="path307461" />
      <path
         d="m 16.671719,46.696057 c 0,1.079497 0.497415,1.873244 1.619245,1.873244 1.142996,0 1.640411,-0.793747 1.640411,-1.873244 v -3.788821 c 0,-1.079497 -0.497415,-1.873244 -1.640411,-1.873244 -1.12183,0 -1.619245,0.793747 -1.619245,1.873244 z m 0.486831,-3.820571 c 0,-0.804331 0.317499,-1.396996 1.132414,-1.396996 0.825497,0 1.153579,0.592665 1.153579,1.396996 v 3.852321 c 0,0.804331 -0.328082,1.396995 -1.153579,1.396995 -0.814915,0 -1.132414,-0.592664 -1.132414,-1.396995 z"
         id="path307463" />
      <path
         d="m 20.735711,41.097491 v 7.40831 h 0.486832 v -3.312573 h 0.772581 c 0.846663,0 1.386412,0.275166 1.386412,1.259413 v 1.164163 c 0,0.402165 0.03175,0.666748 0.158749,0.888997 h 0.507999 c -0.15875,-0.243416 -0.179916,-0.582081 -0.179916,-0.888997 v -1.15358 c 0,-0.80433 -0.306916,-1.344079 -1.068914,-1.513411 0.730248,-0.169333 1.068914,-0.666748 1.068914,-1.534579 v -0.645581 c 0,-1.047747 -0.455082,-1.672162 -1.587495,-1.672162 z m 0.486832,3.651239 v -3.20674 h 1.047746 c 0.804331,0 1.111247,0.476249 1.111247,1.269996 v 0.698498 c 0,0.99483 -0.507999,1.238246 -1.375829,1.238246 z"
         id="path307465" />
      <path
         d="m 27.858269,48.505801 h 0.507998 l -2.254243,-3.958154 2.11666,-3.450156 h -0.507998 l -2.412993,3.915821 v -3.915821 h -0.486831 v 7.40831 h 0.486831 v -2.677575 l 0.507999,-0.80433 z"
         id="path307467" />
      <path
         d="m 30.26067,42.155821 h 1.915577 v -1.05833 h -3.07974 v 7.40831 h 1.164163 v -3.058573 h 1.502828 v -1.05833 H 30.26067 Z"
         style="font-weight:bold"
         id="path307469" />
      <path
         d="m 32.73716,48.505801 h 3.079741 v -1.05833 h -1.915578 v -6.34998 H 32.73716 Z"
         style="font-weight:bold"
         id="path307471" />
      <path
         d="m 37.393819,42.801403 c 0,-0.529165 0.232833,-0.730248 0.603248,-0.730248 0.370416,0 0.603249,0.201083 0.603249,0.730248 v 4.000487 c 0,0.529165 -0.232833,0.730248 -0.603249,0.730248 -0.370415,0 -0.603248,-0.201083 -0.603248,-0.730248 z m -1.164163,3.926404 c 0,1.185329 0.624415,1.862661 1.767411,1.862661 1.142997,0 1.767412,-0.677332 1.767412,-1.862661 v -3.852321 c 0,-1.18533 -0.624415,-1.862661 -1.767412,-1.862661 -1.142996,0 -1.767411,0.677331 -1.767411,1.862661 z"
         style="font-weight:bold"
         id="path307473" />
      <path
         d="m 43.52155,48.505801 h 1.545162 l 0.825497,-7.40831 h -1.015997 l -0.603248,5.884315 -0.582081,-5.884315 h -1.12183 l -0.560915,5.841982 -0.624415,-5.841982 H 40.25131 l 0.825498,7.40831 h 1.598078 l 0.423332,-3.947571 z"
         style="font-weight:bold"
         id="path307475" />
      <path
         d="m 13.327389,61.734926 h 1.545162 l 0.825498,-7.40831 h -1.015997 l -0.603248,5.884315 -0.582082,-5.884315 h -1.12183 l -0.560914,5.841981 -0.624415,-5.841981 H 10.05715 l 0.825497,7.40831 h 1.598078 l 0.423332,-3.947571 z"
         style="font-weight:bold"
         id="path307477" />
      <path
         d="m 17.349041,56.030527 c 0,-0.529165 0.232832,-0.730247 0.603248,-0.730247 0.370415,0 0.603248,0.201082 0.603248,0.730247 v 4.000488 c 0,0.529164 -0.232833,0.730247 -0.603248,0.730247 -0.370416,0 -0.603248,-0.201083 -0.603248,-0.730247 z m -1.164163,3.926404 c 0,1.18533 0.624414,1.862661 1.767411,1.862661 1.142996,0 1.767411,-0.677331 1.767411,-1.862661 V 56.10461 c 0,-1.185329 -0.624415,-1.86266 -1.767411,-1.86266 -1.142997,0 -1.767411,0.677331 -1.767411,1.86266 z"
         style="font-weight:bold"
         id="path307479" />
      <path
         d="M 24.090601,61.734926 C 23.974185,61.45976 23.963602,61.195177 23.963602,60.835345 v -1.142996 c 0,-0.772581 -0.1905,-1.333496 -0.772581,-1.576912 0.518582,-0.243416 0.761998,-0.740831 0.761998,-1.502828 v -0.582082 c 0,-1.142996 -0.518582,-1.703911 -1.725078,-1.703911 h -1.756828 v 7.40831 h 1.164163 v -3.016241 h 0.402165 c 0.529165,0 0.761998,0.254 0.761998,0.941914 v 1.164163 c 0,0.603248 0.04233,0.719664 0.105833,0.910164 z m -1.89441,-6.34998 c 0.412749,0 0.592665,0.232833 0.592665,0.761998 v 0.730247 c 0,0.592665 -0.264583,0.783164 -0.698498,0.783164 h -0.455082 v -2.275409 z"
         style="font-weight:bold"
         id="path307481" />
      <path
         d="m 27.382012,61.734926 h 1.195913 l -1.619245,-4.106321 1.619245,-3.301989 h -1.164163 l -1.523995,3.227906 v -3.227906 h -1.164163 v 7.40831 h 1.164163 v -2.27541 l 0.359832,-0.677331 z"
         style="font-weight:bold"
         id="path307483" />
      <path
         d="m 29.593917,57.935521 v -3.164406 h 2.328326 v -0.444499 h -2.815158 v 7.40831 h 0.486832 V 58.38002 h 1.915577 v -0.444499 z"
         id="path307485" />
      <path
         d="m 35.478237,61.734926 v -0.444499 h -2.328326 v -6.963811 h -0.486832 v 7.40831 z"
         id="path307487" />
      <path
         d="m 36.176724,59.925182 c 0,1.079496 0.497415,1.873244 1.619245,1.873244 1.142996,0 1.640411,-0.793748 1.640411,-1.873244 V 56.13636 c 0,-1.079496 -0.497415,-1.873244 -1.640411,-1.873244 -1.12183,0 -1.619245,0.793748 -1.619245,1.873244 z m 0.486832,-3.820572 c 0,-0.80433 0.317499,-1.396995 1.132413,-1.396995 0.825497,0 1.15358,0.592665 1.15358,1.396995 v 3.852321 c 0,0.804331 -0.328083,1.396996 -1.15358,1.396996 -0.814914,0 -1.132413,-0.592665 -1.132413,-1.396996 z"
         id="path307489" />
      <path
         d="m 43.055873,55.670695 0.994831,6.064231 h 0.634998 l 1.185329,-7.40831 h -0.433915 l -1.068913,6.730979 -1.037164,-6.699229 h -0.518581 l -1.079497,6.720395 -1.111246,-6.752145 h -0.476249 l 1.195913,7.40831 h 0.677331 z"
         id="path307491" />
      <path
         d="m 52.75648,22.047552 h 1.545162 l 0.825498,-7.40831 h -1.015997 l -0.603248,5.884315 -0.582082,-5.884315 h -1.12183 l -0.560914,5.841982 -0.624415,-5.841982 h -1.132413 l 0.825497,7.40831 h 1.598078 l 0.423332,-3.947571 z"
         style="font-weight:bold;fill:#ffffff"
         id="path307886" />
      <path
         d="m 56.778132,16.343154 c 0,-0.529165 0.232832,-0.730248 0.603248,-0.730248 0.370415,0 0.603248,0.201083 0.603248,0.730248 v 4.000487 c 0,0.529165 -0.232833,0.730248 -0.603248,0.730248 -0.370416,0 -0.603248,-0.201083 -0.603248,-0.730248 z m -1.164163,3.926404 c 0,1.185329 0.624414,1.862661 1.767411,1.862661 1.142996,0 1.767411,-0.677332 1.767411,-1.862661 v -3.852321 c 0,-1.18533 -0.624415,-1.862661 -1.767411,-1.862661 -1.142997,0 -1.767411,0.677331 -1.767411,1.862661 z"
         style="font-weight:bold;fill:#ffffff"
         id="path307888" />
      <path
         d="m 63.519692,22.047552 c -0.116416,-0.275166 -0.126999,-0.539748 -0.126999,-0.89958 v -1.142997 c 0,-0.772581 -0.1905,-1.333495 -0.772581,-1.576911 0.518582,-0.243416 0.761998,-0.740831 0.761998,-1.502829 v -0.582081 c 0,-1.142997 -0.518582,-1.703912 -1.725078,-1.703912 h -1.756828 v 7.40831 h 1.164163 v -3.01624 h 0.402165 c 0.529165,0 0.761998,0.253999 0.761998,0.941913 v 1.164163 c 0,0.603248 0.04233,0.719665 0.105833,0.910164 z m -1.89441,-6.34998 c 0.412749,0 0.592665,0.232833 0.592665,0.761998 v 0.730248 c 0,0.592664 -0.264583,0.783164 -0.698498,0.783164 h -0.455082 v -2.27541 z"
         style="font-weight:bold;fill:#ffffff"
         id="path307890" />
      <path
         d="m 66.811103,22.047552 h 1.195913 l -1.619245,-4.10632 1.619245,-3.30199 h -1.164163 l -1.523995,3.227907 v -3.227907 h -1.164163 v 7.40831 h 1.164163 v -2.275409 l 0.359832,-0.677331 z"
         style="font-weight:bold;fill:#ffffff"
         id="path307892" />
      <path
         d="m 69.700339,15.697572 h 1.915577 v -1.05833 h -3.07974 v 7.40831 h 1.164163 v -3.058573 h 1.502829 v -1.05833 h -1.502829 z"
         style="font-weight:bold;fill:#ffffff"
         id="path307894" />
      <path
         d="m 72.17683,22.047552 h 3.07974 v -1.05833 h -1.915577 v -6.34998 H 72.17683 Z"
         style="font-weight:bold;fill:#ffffff"
         id="path307896" />
      <path
         d="m 76.833489,16.343154 c 0,-0.529165 0.232832,-0.730248 0.603248,-0.730248 0.370415,0 0.603248,0.201083 0.603248,0.730248 v 4.000487 c 0,0.529165 -0.232833,0.730248 -0.603248,0.730248 -0.370416,0 -0.603248,-0.201083 -0.603248,-0.730248 z m -1.164163,3.926404 c 0,1.185329 0.624414,1.862661 1.767411,1.862661 1.142996,0 1.767411,-0.677332 1.767411,-1.862661 v -3.852321 c 0,-1.18533 -0.624415,-1.862661 -1.767411,-1.862661 -1.142997,0 -1.767411,0.677331 -1.767411,1.862661 z"
         style="font-weight:bold;fill:#ffffff"
         id="path307898" />
      <path
         d="m 82.961219,22.047552 h 1.545162 l 0.825497,-7.40831 h -1.015997 l -0.603248,5.884315 -0.582081,-5.884315 h -1.12183 l -0.560915,5.841982 -0.624415,-5.841982 h -1.132413 l 0.825498,7.40831 h 1.598078 l 0.423332,-3.947571 z"
         style="font-weight:bold;fill:#ffffff"
         id="path307900" />
      <path
         d="m 52.565981,29.212446 0.99483,6.064231 h 0.634998 l 1.18533,-7.40831 h -0.433916 l -1.068913,6.730978 -1.037163,-6.699228 h -0.518582 l -1.079496,6.720395 -1.111247,-6.752145 h -0.476248 l 1.195912,7.40831 h 0.677332 z"
         id="path307902"
         style="fill:#ffffff" />
      <path
         d="m 56.10081,33.466932 c 0,1.079497 0.497415,1.873244 1.619245,1.873244 1.142996,0 1.640411,-0.793747 1.640411,-1.873244 v -3.788821 c 0,-1.079496 -0.497415,-1.873244 -1.640411,-1.873244 -1.12183,0 -1.619245,0.793748 -1.619245,1.873244 z m 0.486831,-3.820571 c 0,-0.804331 0.317499,-1.396995 1.132414,-1.396995 0.825497,0 1.153579,0.592664 1.153579,1.396995 v 3.852321 c 0,0.804331 -0.328082,1.396996 -1.153579,1.396996 -0.814915,0 -1.132414,-0.592665 -1.132414,-1.396996 z"
         id="path307904"
         style="fill:#ffffff" />
      <path
         d="m 60.164802,27.868367 v 7.40831 h 0.486832 v -3.312573 h 0.772581 c 0.846663,0 1.386412,0.275166 1.386412,1.259413 v 1.164162 c 0,0.402166 0.03175,0.666748 0.158749,0.888998 h 0.507999 c -0.15875,-0.243416 -0.179916,-0.582082 -0.179916,-0.888998 V 33.2341 c 0,-0.804331 -0.306916,-1.344079 -1.068914,-1.513412 0.730248,-0.169333 1.068914,-0.666748 1.068914,-1.534578 v -0.645582 c 0,-1.047746 -0.455082,-1.672161 -1.587495,-1.672161 z m 0.486832,3.651238 v -3.20674 h 1.047746 c 0.804331,0 1.111247,0.476249 1.111247,1.269996 v 0.698498 c 0,0.99483 -0.507999,1.238246 -1.375829,1.238246 z"
         id="path307906"
         style="fill:#ffffff" />
      <path
         d="m 67.28736,35.276677 h 0.507998 l -2.254243,-3.958154 2.11666,-3.450156 h -0.507998 l -2.412993,3.915821 v -3.915821 h -0.486831 v 7.40831 h 0.486831 v -2.677575 l 0.507999,-0.804331 z"
         id="path307908"
         style="fill:#ffffff" />
      <path
         d="m 69.01243,31.477272 v -3.164407 h 2.328326 v -0.444498 h -2.815158 v 7.40831 h 0.486832 v -3.354906 h 1.915577 v -0.444499 z"
         id="path307910"
         style="fill:#ffffff" />
      <path
         d="m 74.89675,35.276677 v -0.444499 h -2.328326 v -6.963811 h -0.486832 v 7.40831 z"
         id="path307912"
         style="fill:#ffffff" />
      <path
         d="m 75.595237,33.466932 c 0,1.079497 0.497415,1.873244 1.619245,1.873244 1.142996,0 1.640411,-0.793747 1.640411,-1.873244 v -3.788821 c 0,-1.079496 -0.497415,-1.873244 -1.640411,-1.873244 -1.12183,0 -1.619245,0.793748 -1.619245,1.873244 z m 0.486832,-3.820571 c 0,-0.804331 0.317499,-1.396995 1.132413,-1.396995 0.825497,0 1.153579,0.592664 1.153579,1.396995 v 3.852321 c 0,0.804331 -0.328082,1.396996 -1.153579,1.396996 -0.814914,0 -1.132413,-0.592665 -1.132413,-1.396996 z"
         id="path307914"
         style="fill:#ffffff" />
      <path
         d="m 82.474388,29.212446 0.99483,6.064231 h 0.634998 l 1.18533,-7.40831 h -0.433915 l -1.068914,6.730978 -1.037163,-6.699228 h -0.518582 l -1.079496,6.720395 -1.111247,-6.752145 h -0.476248 l 1.195913,7.40831 h 0.677331 z"
         id="path307916"
         style="fill:#ffffff" />
      <path
         d="m 52.565981,42.441571 0.99483,6.06423 h 0.634998 l 1.18533,-7.40831 H 54.947223 L 53.87831,47.82847 52.841147,41.129241 h -0.518582 l -1.079496,6.720396 -1.111247,-6.752146 h -0.476248 l 1.195912,7.40831 h 0.677332 z"
         id="path307918"
         style="fill:#ffffff" />
      <path
         d="m 56.10081,46.696057 c 0,1.079497 0.497415,1.873244 1.619245,1.873244 1.142996,0 1.640411,-0.793747 1.640411,-1.873244 v -3.788821 c 0,-1.079497 -0.497415,-1.873244 -1.640411,-1.873244 -1.12183,0 -1.619245,0.793747 -1.619245,1.873244 z m 0.486831,-3.820571 c 0,-0.804331 0.317499,-1.396996 1.132414,-1.396996 0.825497,0 1.153579,0.592665 1.153579,1.396996 v 3.852321 c 0,0.804331 -0.328082,1.396995 -1.153579,1.396995 -0.814915,0 -1.132414,-0.592664 -1.132414,-1.396995 z"
         id="path307920"
         style="fill:#ffffff" />
      <path
         d="m 60.164802,41.097491 v 7.40831 h 0.486832 v -3.312573 h 0.772581 c 0.846663,0 1.386412,0.275166 1.386412,1.259413 v 1.164163 c 0,0.402165 0.03175,0.666748 0.158749,0.888997 h 0.507999 c -0.15875,-0.243416 -0.179916,-0.582081 -0.179916,-0.888997 v -1.15358 c 0,-0.80433 -0.306916,-1.344079 -1.068914,-1.513411 0.730248,-0.169333 1.068914,-0.666748 1.068914,-1.534579 v -0.645581 c 0,-1.047747 -0.455082,-1.672162 -1.587495,-1.672162 z m 0.486832,3.651239 v -3.20674 h 1.047746 c 0.804331,0 1.111247,0.476249 1.111247,1.269996 v 0.698498 c 0,0.99483 -0.507999,1.238246 -1.375829,1.238246 z"
         id="path307922"
         style="fill:#ffffff" />
      <path
         d="m 67.28736,48.505801 h 0.507998 l -2.254243,-3.958154 2.11666,-3.450156 h -0.507998 l -2.412993,3.915821 v -3.915821 h -0.486831 v 7.40831 h 0.486831 v -2.677575 l 0.507999,-0.80433 z"
         id="path307924"
         style="fill:#ffffff" />
      <path
         d="m 69.689761,42.155821 h 1.915577 v -1.05833 h -3.07974 v 7.40831 h 1.164163 v -3.058573 h 1.502828 v -1.05833 h -1.502828 z"
         style="font-weight:bold;fill:#ffffff"
         id="path307926" />
      <path
         d="m 72.166251,48.505801 h 3.079741 v -1.05833 h -1.915578 v -6.34998 h -1.164163 z"
         style="font-weight:bold;fill:#ffffff"
         id="path307928" />
      <path
         d="m 76.82291,42.801403 c 0,-0.529165 0.232833,-0.730248 0.603248,-0.730248 0.370416,0 0.603249,0.201083 0.603249,0.730248 v 4.000487 c 0,0.529165 -0.232833,0.730248 -0.603249,0.730248 -0.370415,0 -0.603248,-0.201083 -0.603248,-0.730248 z m -1.164163,3.926404 c 0,1.185329 0.624415,1.862661 1.767411,1.862661 1.142997,0 1.767412,-0.677332 1.767412,-1.862661 v -3.852321 c 0,-1.18533 -0.624415,-1.862661 -1.767412,-1.862661 -1.142996,0 -1.767411,0.677331 -1.767411,1.862661 z"
         style="font-weight:bold;fill:#ffffff"
         id="path307930" />
      <path
         d="m 82.950641,48.505801 h 1.545162 l 0.825497,-7.40831 h -1.015997 l -0.603248,5.884315 -0.582081,-5.884315 h -1.12183 l -0.560915,5.841982 -0.624415,-5.841982 h -1.132413 l 0.825498,7.40831 h 1.598078 l 0.423332,-3.947571 z"
         style="font-weight:bold;fill:#ffffff"
         id="path307932" />
      <path
         d="m 52.75648,61.734926 h 1.545162 l 0.825498,-7.40831 h -1.015997 l -0.603248,5.884315 -0.582082,-5.884315 h -1.12183 l -0.560914,5.841981 -0.624415,-5.841981 h -1.132413 l 0.825497,7.40831 h 1.598078 l 0.423332,-3.947571 z"
         style="font-weight:bold;fill:#ffffff"
         id="path307934" />
      <path
         d="m 56.778132,56.030527 c 0,-0.529165 0.232832,-0.730247 0.603248,-0.730247 0.370415,0 0.603248,0.201082 0.603248,0.730247 v 4.000488 c 0,0.529164 -0.232833,0.730247 -0.603248,0.730247 -0.370416,0 -0.603248,-0.201083 -0.603248,-0.730247 z m -1.164163,3.926404 c 0,1.18533 0.624414,1.862661 1.767411,1.862661 1.142996,0 1.767411,-0.677331 1.767411,-1.862661 V 56.10461 c 0,-1.185329 -0.624415,-1.86266 -1.767411,-1.86266 -1.142997,0 -1.767411,0.677331 -1.767411,1.86266 z"
         style="font-weight:bold;fill:#ffffff"
         id="path307936" />
      <path
         d="M 63.519692,61.734926 C 63.403276,61.45976 63.392693,61.195177 63.392693,60.835345 v -1.142996 c 0,-0.772581 -0.1905,-1.333496 -0.772581,-1.576912 0.518582,-0.243416 0.761998,-0.740831 0.761998,-1.502828 v -0.582082 c 0,-1.142996 -0.518582,-1.703911 -1.725078,-1.703911 h -1.756828 v 7.40831 h 1.164163 v -3.016241 h 0.402165 c 0.529165,0 0.761998,0.254 0.761998,0.941914 v 1.164163 c 0,0.603248 0.04233,0.719664 0.105833,0.910164 z m -1.89441,-6.34998 c 0.412749,0 0.592665,0.232833 0.592665,0.761998 v 0.730247 c 0,0.592665 -0.264583,0.783164 -0.698498,0.783164 h -0.455082 v -2.275409 z"
         style="font-weight:bold;fill:#ffffff"
         id="path307938" />
      <path
         d="m 66.811103,61.734926 h 1.195913 l -1.619245,-4.106321 1.619245,-3.301989 h -1.164163 l -1.523995,3.227906 v -3.227906 h -1.164163 v 7.40831 h 1.164163 v -2.27541 l 0.359832,-0.677331 z"
         style="font-weight:bold;fill:#ffffff"
         id="path307940" />
      <path
         d="m 69.023008,57.935521 v -3.164406 h 2.328326 v -0.444499 h -2.815158 v 7.40831 h 0.486832 V 58.38002 h 1.915577 v -0.444499 z"
         id="path307942"
         style="fill:#ffffff" />
      <path
         d="M 74.907328,61.734926 V 61.290427 H 72.579002 V 54.326616 H 72.09217 v 7.40831 z"
         id="path307944"
         style="fill:#ffffff" />
      <path
         d="m 75.605815,59.925182 c 0,1.079496 0.497415,1.873244 1.619245,1.873244 1.142996,0 1.640411,-0.793748 1.640411,-1.873244 V 56.13636 c 0,-1.079496 -0.497415,-1.873244 -1.640411,-1.873244 -1.12183,0 -1.619245,0.793748 -1.619245,1.873244 z m 0.486832,-3.820572 c 0,-0.80433 0.317499,-1.396995 1.132413,-1.396995 0.825497,0 1.15358,0.592665 1.15358,1.396995 v 3.852321 c 0,0.804331 -0.328083,1.396996 -1.15358,1.396996 -0.814914,0 -1.132413,-0.592665 -1.132413,-1.396996 z"
         id="path307946"
         style="fill:#ffffff" />
      <path
         d="m 82.484964,55.670695 0.994831,6.064231 h 0.634998 l 1.185329,-7.40831 h -0.433915 l -1.068913,6.730979 -1.037164,-6.699229 h -0.518581 l -1.079497,6.720395 -1.111246,-6.752145 h -0.476249 l 1.195913,7.40831 h 0.677331 z"
         id="path307948"
         style="fill:#ffffff" />
    </g>
    <text
       xml:space="preserve"
       transform="scale(0.26458333)"
       id="text95271"
       style="font-size:40px;line-height:1.25;font-family:'Bebas Neue';-inkscape-font-specification:'Bebas Neue';white-space:pre;shape-inside:url(#rect95273)" />
  </g>
</svg>
