<?xml version="1.0" encoding="UTF-8" standalone="no"?>
<!-- Created with Inkscape (http://www.inkscape.org/) -->

<svg
   width="141.66406mm"
   height="100.99813mm"
   viewBox="0 0 141.66406 100.99813"
   version="1.1"
   id="svg5"
   inkscape:version="1.1.2 (b8e25be833, 2022-02-05)"
   sodipodi:docname="buzzword-bingo2-paths.svg"
   xmlns:inkscape="http://www.inkscape.org/namespaces/inkscape"
   xmlns:sodipodi="http://sodipodi.sourceforge.net/DTD/sodipodi-0.dtd"
   xmlns="http://www.w3.org/2000/svg"
   xmlns:svg="http://www.w3.org/2000/svg">
  <sodipodi:namedview
     id="namedview7"
     pagecolor="#505050"
     bordercolor="#eeeeee"
     borderopacity="1"
     inkscape:pageshadow="0"
     inkscape:pageopacity="0"
     inkscape:pagecheckerboard="0"
     inkscape:document-units="mm"
     showgrid="false"
     fit-margin-top="0"
     fit-margin-left="0"
     fit-margin-right="0"
     fit-margin-bottom="0"
     inkscape:zoom="2.3077618"
     inkscape:cx="206.0438"
     inkscape:cy="207.34376"
     inkscape:window-width="2560"
     inkscape:window-height="1521"
     inkscape:window-x="-9"
     inkscape:window-y="-9"
     inkscape:window-maximized="1"
     inkscape:current-layer="g190078" />
  <defs
     id="defs2">
    <rect
       x="-370.79059"
       y="-81.183624"
       width="246.67331"
       height="92.892799"
       id="rect95273" />
  </defs>
  <g
     inkscape:label="Layer 1"
     inkscape:groupmode="layer"
     id="layer1"
     transform="translate(-5.8677064,-9.2223235)">
    <text
       xml:space="preserve"
       transform="scale(0.26458333)"
       id="text95271"
       style="font-size:40px;line-height:1.25;font-family:'Bebas Neue';-inkscape-font-specification:'Bebas Neue';white-space:pre;shape-inside:url(#rect95273)" />
    <g
       id="g189688"
       transform="translate(1.6031893,2.5175059)">
      <g
         aria-label="engineering"
         id="text183442"
         style="font-size:10.5833px;line-height:1.25;font-family:'Bebas Neue';-inkscape-font-specification:'Bebas Neue';stroke-width:0.264583">
        <path
           d="M 10.432186,12.956703 V 9.9722126 h 2.434159 V 9.527714 H 9.9453542 v 7.40831 h 2.9209908 v -0.444499 h -2.434159 v -3.090323 h 2.02141 v -0.444499 z"
           id="path196504" />
        <path
           d="m 14.104589,10.332045 2.317743,6.603979 h 0.539748 v -7.40831 h -0.444498 v 6.25473 l -2.222493,-6.25473 h -0.634998 v 7.40831 h 0.444498 z"
           id="path196506" />
        <path
           d="m 19.364497,9.4642142 c -1.132413,0 -1.598078,0.8043308 -1.598078,1.8732438 v 3.788821 c 0,1.068914 0.465665,1.873245 1.598078,1.873245 1.132413,0 1.598078,-0.804331 1.598078,-1.873245 v -2.010826 h -1.449912 v 0.444498 h 0.984247 v 1.598078 c 0,0.793748 -0.306915,1.386413 -1.121829,1.386413 -0.814915,0 -1.12183,-0.592665 -1.12183,-1.386413 v -3.852321 c 0,-0.793747 0.306915,-1.3969952 1.12183,-1.3969952 0.814914,0 1.121829,0.6032482 1.121829,1.3969952 v 0.582082 h 0.465665 v -0.550332 c 0,-1.068913 -0.465665,-1.8732438 -1.598078,-1.8732438 z"
           id="path196508" />
        <path
           d="m 21.777484,9.527714 v 7.40831 h 0.486831 v -7.40831 z"
           id="path196510" />
        <path
           d="m 23.555472,10.332045 2.317742,6.603979 h 0.539749 v -7.40831 h -0.444499 v 6.25473 l -2.222493,-6.25473 h -0.634998 v 7.40831 h 0.444499 z"
           id="path196512" />
        <path
           d="M 27.735884,12.956703 V 9.9722126 h 2.434159 V 9.527714 h -2.920991 v 7.40831 h 2.920991 v -0.444499 h -2.434159 v -3.090323 h 2.02141 v -0.444499 z"
           id="path196514" />
        <path
           d="M 31.450621,12.956703 V 9.9722126 h 2.434158 V 9.527714 h -2.92099 v 7.40831 h 2.92099 v -0.444499 h -2.434158 v -3.090323 h 2.02141 v -0.444499 z"
           id="path196516" />
        <path
           d="m 34.678524,9.527714 v 7.40831 h 0.486832 v -3.312573 h 0.77258 c 0.846664,0 1.386413,0.275166 1.386413,1.259413 v 1.164163 c 0,0.402165 0.03175,0.666747 0.158749,0.888997 h 0.507999 C 37.832347,16.692608 37.81118,16.353942 37.81118,16.047027 v -1.15358 c 0,-0.804331 -0.306915,-1.344079 -1.068913,-1.513412 0.730248,-0.169333 1.068913,-0.666748 1.068913,-1.534578 v -0.645582 c 0,-1.047746 -0.455081,-1.672161 -1.587494,-1.672161 z m 0.486832,3.651238 V 9.9722126 h 1.047746 c 0.804331,0 1.111247,0.4762484 1.111247,1.2699964 v 0.698497 c 0,0.99483 -0.507999,1.238246 -1.375829,1.238246 z"
           id="path196518" />
        <path
           d="m 38.763675,9.527714 v 7.40831 h 0.486832 v -7.40831 z"
           id="path196520" />
        <path
           d="m 40.541663,10.332045 2.317742,6.603979 h 0.539748 v -7.40831 h -0.444498 v 6.25473 l -2.222493,-6.25473 h -0.634998 v 7.40831 h 0.444499 z"
           id="path196522" />
        <path
           d="m 45.801573,9.4642142 c -1.132413,0 -1.598078,0.8043308 -1.598078,1.8732438 v 3.788821 c 0,1.068914 0.465665,1.873245 1.598078,1.873245 1.132413,0 1.598078,-0.804331 1.598078,-1.873245 v -2.010826 h -1.449912 v 0.444498 h 0.984247 v 1.598078 c 0,0.793748 -0.306916,1.386413 -1.12183,1.386413 -0.814914,0 -1.12183,-0.592665 -1.12183,-1.386413 v -3.852321 c 0,-0.793747 0.306916,-1.3969952 1.12183,-1.3969952 0.814914,0 1.12183,0.6032482 1.12183,1.3969952 v 0.582082 h 0.465665 v -0.550332 c 0,-1.068913 -0.465665,-1.8732438 -1.598078,-1.8732438 z"
           id="path196524" />
      </g>
      <g
         aria-label="engineering"
         id="text183526"
         style="font-size:10.5833px;line-height:1.25;font-family:'Bebas Neue';-inkscape-font-specification:'Bebas Neue';stroke-width:0.264583">
        <path
           d="m 9.3262268,19.708471 h 2.0108272 v -1.05833 H 8.1620638 v 7.40831 h 3.1749902 v -1.05833 H 9.3262268 v -2.169577 h 1.5980782 v -1.05833 H 9.3262268 Z"
           style="font-weight:bold"
           id="path196527" />
        <path
           d="m 14.543794,26.058451 h 1.195913 v -7.40831 h -1.037164 v 4.434403 L 13.50663,18.650141 h -1.460495 v 7.40831 h 1.047747 v -5.365733 z"
           style="font-weight:bold"
           id="path196529" />
        <path
           d="m 18.322032,22.989294 h 0.529165 v 1.365245 c 0,0.529165 -0.232832,0.719665 -0.603248,0.719665 -0.370415,0 -0.603248,-0.1905 -0.603248,-0.719665 v -4.000487 c 0,-0.529165 0.232833,-0.730247 0.603248,-0.730247 0.370416,0 0.603248,0.201082 0.603248,0.730247 V 21.1478 h 1.100663 v -0.719665 c 0,-1.185329 -0.592664,-1.86266 -1.735661,-1.86266 -1.142996,0 -1.735661,0.677331 -1.735661,1.86266 v 3.852321 c 0,1.18533 0.592665,1.862661 1.735661,1.862661 1.142997,0 1.735661,-0.677331 1.735661,-1.862661 v -2.349492 h -1.629828 z"
           style="font-weight:bold"
           id="path196531" />
        <path
           d="m 20.703268,26.058451 h 1.164163 v -7.40831 h -1.164163 z"
           style="font-weight:bold"
           id="path196533" />
        <path
           d="m 25.201176,26.058451 h 1.195912 v -7.40831 h -1.037163 v 4.434403 l -1.195913,-4.434403 h -1.460495 v 7.40831 h 1.047746 v -5.365733 z"
           style="font-weight:bold"
           id="path196535" />
        <path
           d="m 28.397333,19.708471 h 2.010827 v -1.05833 h -3.17499 v 7.40831 h 3.17499 v -1.05833 h -2.010827 v -2.169577 h 1.598078 v -1.05833 h -1.598078 z"
           style="font-weight:bold"
           id="path196537" />
        <path
           d="m 32.291988,19.708471 h 2.010827 v -1.05833 h -3.17499 v 7.40831 h 3.17499 v -1.05833 h -2.010827 v -2.169577 h 1.598078 v -1.05833 h -1.598078 z"
           style="font-weight:bold"
           id="path196539" />
        <path
           d="m 38.641967,26.058451 c -0.116416,-0.275166 -0.127,-0.539749 -0.127,-0.899581 v -1.142996 c 0,-0.772581 -0.190499,-1.333496 -0.772581,-1.576912 0.518582,-0.243416 0.761998,-0.740831 0.761998,-1.502828 v -0.582082 c 0,-1.142996 -0.518582,-1.703911 -1.725078,-1.703911 h -1.756828 v 7.40831 h 1.164163 V 23.04221 h 0.402166 c 0.529165,0 0.761997,0.253999 0.761997,0.941914 v 1.164163 c 0,0.603248 0.04233,0.719664 0.105833,0.910164 z m -1.894411,-6.34998 c 0.412749,0 0.592665,0.232833 0.592665,0.761997 v 0.730248 c 0,0.592665 -0.264583,0.783164 -0.698498,0.783164 h -0.455082 v -2.275409 z"
           style="font-weight:bold"
           id="path196541" />
        <path
           d="m 39.27697,26.058451 h 1.164163 v -7.40831 H 39.27697 Z"
           style="font-weight:bold"
           id="path196543" />
        <path
           d="m 43.774879,26.058451 h 1.195913 v -7.40831 h -1.037163 v 4.434403 l -1.195913,-4.434403 h -1.460495 v 7.40831 h 1.047746 v -5.365733 z"
           style="font-weight:bold"
           id="path196545" />
        <path
           d="m 47.553114,22.989294 h 0.529165 v 1.365245 c 0,0.529165 -0.232832,0.719665 -0.603248,0.719665 -0.370415,0 -0.603248,-0.1905 -0.603248,-0.719665 v -4.000487 c 0,-0.529165 0.232833,-0.730247 0.603248,-0.730247 0.370416,0 0.603248,0.201082 0.603248,0.730247 V 21.1478 h 1.100663 v -0.719665 c 0,-1.185329 -0.592664,-1.86266 -1.735661,-1.86266 -1.142996,0 -1.735661,0.677331 -1.735661,1.86266 v 3.852321 c 0,1.18533 0.592665,1.862661 1.735661,1.862661 1.142997,0 1.735661,-0.677331 1.735661,-1.862661 v -2.349492 h -1.629828 z"
           style="font-weight:bold"
           id="path196547" />
      </g>
    </g>
    <g
       id="g189682">
      <g
         aria-label="capabilities"
         id="text186246"
         style="font-size:10.5833px;line-height:1.25;font-family:'Bebas Neue';-inkscape-font-specification:'Bebas Neue';stroke-width:0.264583">
        <path
           d="m 12.535444,31.064514 c -1.132413,0 -1.598078,0.804331 -1.598078,1.873244 v 3.788821 c 0,1.068914 0.465665,1.873244 1.598078,1.873244 1.132413,0 1.598079,-0.80433 1.598079,-1.873244 v -0.846664 h -0.465666 v 0.878414 c 0,0.793748 -0.306915,1.386412 -1.121829,1.386412 -0.814914,0 -1.12183,-0.592664 -1.12183,-1.386412 v -3.852321 c 0,-0.793747 0.306916,-1.396995 1.12183,-1.396995 0.814914,0 1.121829,0.603248 1.121829,1.396995 v 0.645581 h 0.465666 v -0.613831 c 0,-1.068913 -0.465666,-1.873244 -1.598079,-1.873244 z"
           id="path196550" />
        <path
           d="m 17.943516,36.895912 0.370416,1.640412 h 0.486832 l -1.650995,-7.418893 h -0.709081 l -1.619245,7.418893 h 0.444498 l 0.370416,-1.640412 z m -1.164163,-5.217567 1.09008,4.794235 H 15.71044 Z"
           id="path196552" />
        <path
           d="m 19.541603,31.128014 v 7.40831 h 0.486832 v -3.047991 h 0.920747 c 1.174746,0 1.714494,-0.582081 1.714494,-1.756827 v -0.804331 c 0,-1.079497 -0.444498,-1.799161 -1.587495,-1.799161 z m 0.486832,3.915821 v -3.471323 h 1.047746 c 0.825498,0 1.100663,0.518582 1.100663,1.322913 v 0.86783 c 0,0.899581 -0.370415,1.28058 -1.227662,1.28058 z"
           id="path196554" />
        <path
           d="m 26.27258,36.895912 0.370416,1.640412 h 0.486831 l -1.650994,-7.418893 h -0.709081 l -1.619245,7.418893 h 0.444498 l 0.370416,-1.640412 z m -1.164163,-5.217567 1.09008,4.794235 h -2.158993 z"
           id="path196556" />
        <path
           d="m 27.870666,31.128014 v 7.40831 h 1.587495 c 1.132413,0 1.619245,-0.645582 1.619245,-1.714495 v -0.645581 c 0,-0.836081 -0.306916,-1.428746 -1.111246,-1.587495 0.751414,-0.15875 0.973663,-0.656165 0.973663,-1.460496 v -0.423332 c 0,-1.02658 -0.402165,-1.576911 -1.513412,-1.576911 z m 0.486832,3.270239 v -2.825741 h 1.05833 c 0.793747,0 1.037163,0.402166 1.037163,1.174747 v 0.476248 c 0,0.941914 -0.402165,1.174746 -1.269996,1.174746 z m 0,3.693572 v -3.249073 h 0.920747 c 0.878414,0 1.312329,0.338666 1.312329,1.301746 v 0.666748 c 0,0.825497 -0.317499,1.280579 -1.132413,1.280579 z"
           id="path196558" />
        <path
           d="m 31.871158,31.128014 v 7.40831 h 0.486832 v -7.40831 z"
           id="path196560" />
        <path
           d="m 36.019805,38.536324 v -0.444499 h -2.328326 v -6.963811 h -0.486832 v 7.40831 z"
           id="path196562" />
        <path
           d="m 36.750044,31.128014 v 7.40831 h 0.486831 v -7.40831 z"
           id="path196564" />
        <path
           d="m 39.819193,38.536324 v -6.963812 h 1.513412 v -0.444498 h -3.503072 v 0.444498 h 1.502828 v 6.963812 z"
           id="path196566" />
        <path
           d="m 41.935858,31.128014 v 7.40831 h 0.486831 v -7.40831 z"
           id="path196568" />
        <path
           d="m 43.75618,34.557003 v -2.984491 h 2.434159 v -0.444498 h -2.920991 v 7.40831 h 2.920991 V 38.091825 H 43.75618 v -3.090324 h 2.02141 v -0.444498 z"
           id="path196570" />
        <path
           d="m 48.529247,31.064514 c -1.09008,0.01058 -1.576912,0.730248 -1.576912,1.841494 0,2.063744 2.677575,2.095493 2.677575,3.873488 0,0.793747 -0.306916,1.365245 -1.12183,1.365245 -0.814914,0 -1.12183,-0.571498 -1.12183,-1.365245 v -0.412749 h -0.465665 v 0.380999 c 0,1.068913 0.465665,1.852077 1.598078,1.852077 1.132413,0 1.598079,-0.783164 1.598079,-1.852077 0,-2.042577 -2.677575,-2.074327 -2.677575,-3.873488 0,-0.783164 0.296332,-1.365245 1.100663,-1.365245 0.804331,0 1.100663,0.592664 1.100663,1.375829 v 0.190499 h 0.465665 v -0.15875 c 0,-1.068913 -0.455082,-1.852077 -1.576911,-1.852077 z"
           id="path196572" />
      </g>
      <g
         aria-label="capabilities"
         id="text186250"
         style="font-size:10.5833px;line-height:1.25;font-family:'Bebas Neue';-inkscape-font-specification:'Bebas Neue';stroke-width:0.264583">
        <path
           d="m 12.138557,44.896507 v 1.05833 c 0,0.529165 -0.232833,0.719665 -0.603248,0.719665 -0.370416,0 -0.603248,-0.1905 -0.603248,-0.719665 V 41.95435 c 0,-0.529165 0.232832,-0.730248 0.603248,-0.730248 0.370415,0 0.603248,0.201083 0.603248,0.730248 v 0.793748 h 1.100663 v -0.719665 c 0,-1.185329 -0.592665,-1.862661 -1.735661,-1.862661 -1.142996,0 -1.7356612,0.677332 -1.7356612,1.862661 v 3.852321 c 0,1.18533 0.5926652,1.862661 1.7356612,1.862661 1.142996,0 1.735661,-0.677331 1.735661,-1.862661 v -0.984247 z"
           style="font-weight:bold"
           id="path196575" />
        <path
           d="m 16.530623,40.250439 h -1.703911 l -1.18533,7.40831 h 1.068913 l 0.201083,-1.344079 h 1.428745 l 0.201083,1.344079 h 1.174746 z m -0.910164,1.312329 0.560915,3.746488 h -1.12183 z"
           style="font-weight:bold"
           id="path196577" />
        <path
           d="m 19.970192,40.250439 h -1.714495 v 7.40831 h 1.164163 v -2.783408 h 0.550332 c 1.164163,0 1.735661,-0.645581 1.735661,-1.830911 v -0.96308 c 0,-1.18533 -0.571498,-1.830911 -1.735661,-1.830911 z m 0,1.05833 c 0.370415,0 0.571498,0.169333 0.571498,0.698498 v 1.111246 c 0,0.529165 -0.201083,0.698498 -0.571498,0.698498 H 19.41986 v -2.508242 z"
           style="font-weight:bold"
           id="path196579" />
        <path
           d="m 24.690346,40.250439 h -1.703912 l -1.185329,7.40831 h 1.068913 l 0.201083,-1.344079 h 1.428745 l 0.201083,1.344079 h 1.174746 z m -0.910164,1.312329 0.560915,3.746488 h -1.12183 z"
           style="font-weight:bold"
           id="path196581" />
        <path
           d="M 28.172248,40.250439 H 26.41542 v 7.40831 h 1.830911 c 1.164163,0 1.767411,-0.613832 1.767411,-1.756828 v -0.603248 c 0,-0.783164 -0.243416,-1.344079 -0.86783,-1.587495 0.518581,-0.243416 0.751414,-0.730248 0.751414,-1.492245 V 41.95435 c 0,-1.142996 -0.518582,-1.703911 -1.725078,-1.703911 z m -0.07408,4.07457 c 0.529165,0 0.751414,0.211666 0.751414,0.899581 v 0.645581 c 0,0.550332 -0.211666,0.730248 -0.603248,0.730248 h -0.666748 v -2.27541 z m 0.04233,-3.01624 c 0.412749,0 0.592665,0.232832 0.592665,0.761997 v 0.412749 c 0,0.592665 -0.264583,0.783164 -0.698498,0.783164 h -0.455082 v -1.95791 z"
           style="font-weight:bold"
           id="path196583" />
        <path
           d="m 30.712242,47.658749 h 1.164163 v -7.40831 h -1.164163 z"
           style="font-weight:bold"
           id="path196585" />
        <path
           d="m 32.723074,47.658749 h 3.07974 v -1.05833 h -1.915577 v -6.34998 h -1.164163 z"
           style="font-weight:bold"
           id="path196587" />
        <path
           d="m 36.310819,47.658749 h 1.164163 v -7.40831 h -1.164163 z"
           style="font-weight:bold"
           id="path196589" />
        <path
           d="m 37.982986,41.308769 h 1.217079 v 6.34998 h 1.164163 v -6.34998 h 1.21708 v -1.05833 h -3.598322 z"
           style="font-weight:bold"
           id="path196591" />
        <path
           d="m 42.089317,47.658749 h 1.164163 v -7.40831 h -1.164163 z"
           style="font-weight:bold"
           id="path196593" />
        <path
           d="m 45.26431,41.308769 h 2.010827 v -1.05833 h -3.17499 v 7.40831 h 3.17499 v -1.05833 H 45.26431 v -2.169577 h 1.598078 v -1.05833 H 45.26431 Z"
           style="font-weight:bold"
           id="path196595" />
        <path
           d="m 47.846638,42.028433 c 0,2.11666 2.275409,2.402409 2.275409,3.926404 0,0.529165 -0.232832,0.719665 -0.603248,0.719665 -0.370415,0 -0.603248,-0.1905 -0.603248,-0.719665 v -0.529165 h -1.100663 v 0.455082 c 0,1.18533 0.592665,1.862661 1.735661,1.862661 1.142997,0 1.735661,-0.677331 1.735661,-1.862661 0,-2.11666 -2.275409,-2.402409 -2.275409,-3.926404 0,-0.529165 0.211666,-0.730248 0.582081,-0.730248 0.370416,0 0.582082,0.201083 0.582082,0.730248 v 0.306916 h 1.100663 v -0.232833 c 0,-1.185329 -0.582081,-1.862661 -1.714495,-1.862661 -1.132413,0 -1.714494,0.677332 -1.714494,1.862661 z"
           style="font-weight:bold"
           id="path196597" />
      </g>
    </g>
    <g
       id="g190078"
       transform="translate(0.34394798,20.751528)">
      <g
         aria-label="workflow"
         id="text190072"
         style="font-size:10.5833px;line-height:1.25;font-family:'Bebas Neue';-inkscape-font-specification:'Bebas Neue';stroke-width:0.264583">
        <path
           d="m 14.209312,30.867002 0.99483,6.06423 h 0.634998 l 1.18533,-7.408309 h -0.433916 l -1.068913,6.730978 -1.037163,-6.699228 H 13.965896 L 12.8864,36.275068 11.775153,29.522923 h -0.476248 l 1.195912,7.408309 h 0.677332 z"
           id="path196600" />
        <path
           d="m 17.744141,35.121488 c 0,1.079497 0.497415,1.873244 1.619245,1.873244 1.142996,0 1.640411,-0.793747 1.640411,-1.873244 v -3.788821 c 0,-1.079497 -0.497415,-1.873244 -1.640411,-1.873244 -1.12183,0 -1.619245,0.793747 -1.619245,1.873244 z m 0.486831,-3.820571 c 0,-0.804331 0.317499,-1.396996 1.132414,-1.396996 0.825497,0 1.153579,0.592665 1.153579,1.396996 v 3.852321 c 0,0.804331 -0.328082,1.396996 -1.153579,1.396996 -0.814915,0 -1.132414,-0.592665 -1.132414,-1.396996 z"
           id="path196602" />
        <path
           d="m 21.808133,29.522923 v 7.408309 h 0.486832 V 33.61866 h 0.772581 c 0.846664,0 1.386412,0.275165 1.386412,1.259412 v 1.164163 c 0,0.402166 0.03175,0.666748 0.158749,0.888997 h 0.507999 C 24.961956,36.687817 24.94079,36.349151 24.94079,36.042235 v -1.153579 c 0,-0.804331 -0.306916,-1.344079 -1.068914,-1.513412 0.730248,-0.169333 1.068914,-0.666748 1.068914,-1.534579 v -0.645581 c 0,-1.047747 -0.455082,-1.672161 -1.587495,-1.672161 z m 0.486832,3.651238 v -3.20674 h 1.047746 c 0.804331,0 1.111247,0.476249 1.111247,1.269996 v 0.698498 c 0,0.99483 -0.507999,1.238246 -1.375829,1.238246 z"
           id="path196604" />
        <path
           d="m 28.930691,36.931232 h 0.507998 l -2.254243,-3.958154 2.11666,-3.450155 h -0.507998 l -2.412993,3.915821 v -3.915821 h -0.486831 v 7.408309 h 0.486831 v -2.677574 l 0.507999,-0.804331 z"
           id="path196606" />
        <path
           d="m 30.655761,33.131828 v -3.164407 h 2.328326 v -0.444498 h -2.815158 v 7.408309 h 0.486832 v -3.354906 h 1.915577 v -0.444498 z"
           id="path196608" />
        <path
           d="m 36.540081,36.931232 v -0.444498 h -2.328326 v -6.963811 h -0.486832 v 7.408309 z"
           id="path196610" />
        <path
           d="m 37.238568,35.121488 c 0,1.079497 0.497415,1.873244 1.619245,1.873244 1.142996,0 1.640411,-0.793747 1.640411,-1.873244 v -3.788821 c 0,-1.079497 -0.497415,-1.873244 -1.640411,-1.873244 -1.12183,0 -1.619245,0.793747 -1.619245,1.873244 z M 37.7254,31.300917 c 0,-0.804331 0.317499,-1.396996 1.132413,-1.396996 0.825497,0 1.153579,0.592665 1.153579,1.396996 v 3.852321 c 0,0.804331 -0.328082,1.396996 -1.153579,1.396996 -0.814914,0 -1.132413,-0.592665 -1.132413,-1.396996 z"
           id="path196612" />
        <path
           d="m 44.117719,30.867002 0.99483,6.06423 h 0.634998 l 1.18533,-7.408309 h -0.433915 l -1.068914,6.730978 -1.037163,-6.699228 h -0.518582 l -1.079496,6.720395 -1.111247,-6.752145 h -0.476248 l 1.195913,7.408309 h 0.677331 z"
           id="path196614" />
      </g>
      <g
         aria-label="workflow"
         id="text190076"
         style="font-size:10.5833px;line-height:1.25;font-family:'Bebas Neue';-inkscape-font-specification:'Bebas Neue';stroke-width:0.264583">
        <path
           d="m 14.463312,46.545269 h 1.545162 l 0.825497,-7.40831 h -1.015997 l -0.603248,5.884315 -0.582081,-5.884315 h -1.12183 L 12.9499,44.978941 12.325485,39.136959 h -1.132413 l 0.825498,7.40831 h 1.598078 l 0.423332,-3.947571 z"
           style="font-weight:bold"
           id="path196617" />
        <path
           d="m 18.484963,40.840871 c 0,-0.529165 0.232833,-0.730248 0.603248,-0.730248 0.370416,0 0.603248,0.201083 0.603248,0.730248 v 4.000487 c 0,0.529165 -0.232832,0.730247 -0.603248,0.730247 -0.370415,0 -0.603248,-0.201082 -0.603248,-0.730247 z M 17.3208,44.767275 c 0,1.185329 0.624415,1.86266 1.767411,1.86266 1.142996,0 1.767411,-0.677331 1.767411,-1.86266 v -3.852321 c 0,-1.18533 -0.624415,-1.862661 -1.767411,-1.862661 -1.142996,0 -1.767411,0.677331 -1.767411,1.862661 z"
           style="font-weight:bold"
           id="path196619" />
        <path
           d="m 25.226524,46.545269 c -0.116416,-0.275166 -0.127,-0.539748 -0.127,-0.89958 v -1.142997 c 0,-0.772581 -0.190499,-1.333496 -0.772581,-1.576911 0.518582,-0.243416 0.761998,-0.740831 0.761998,-1.502829 v -0.582081 c 0,-1.142997 -0.518582,-1.703912 -1.725078,-1.703912 h -1.756828 v 7.40831 h 1.164163 v -3.01624 h 0.402166 c 0.529165,0 0.761997,0.253999 0.761997,0.941913 v 1.164163 c 0,0.603248 0.04233,0.719665 0.105833,0.910164 z m -1.894411,-6.34998 c 0.412749,0 0.592665,0.232833 0.592665,0.761998 v 0.730247 c 0,0.592665 -0.264582,0.783165 -0.698498,0.783165 h -0.455082 v -2.27541 z"
           style="font-weight:bold"
           id="path196621" />
        <path
           d="m 28.517934,46.545269 h 1.195913 l -1.619245,-4.10632 1.619245,-3.30199 h -1.164163 l -1.523995,3.227907 v -3.227907 h -1.164163 v 7.40831 h 1.164163 V 44.26986 l 0.359832,-0.677332 z"
           style="font-weight:bold"
           id="path196623" />
        <path
           d="m 31.40717,40.195289 h 1.915578 v -1.05833 h -3.079741 v 7.40831 h 1.164163 v -3.058574 h 1.502829 v -1.05833 H 31.40717 Z"
           style="font-weight:bold"
           id="path196625" />
        <path
           d="m 33.883661,46.545269 h 3.07974 v -1.05833 h -1.915577 v -6.34998 h -1.164163 z"
           style="font-weight:bold"
           id="path196627" />
        <path
           d="m 38.54032,40.840871 c 0,-0.529165 0.232833,-0.730248 0.603248,-0.730248 0.370416,0 0.603248,0.201083 0.603248,0.730248 v 4.000487 c 0,0.529165 -0.232832,0.730247 -0.603248,0.730247 -0.370415,0 -0.603248,-0.201082 -0.603248,-0.730247 z m -1.164163,3.926404 c 0,1.185329 0.624415,1.86266 1.767411,1.86266 1.142996,0 1.767411,-0.677331 1.767411,-1.86266 v -3.852321 c 0,-1.18533 -0.624415,-1.862661 -1.767411,-1.862661 -1.142996,0 -1.767411,0.677331 -1.767411,1.862661 z"
           style="font-weight:bold"
           id="path196629" />
        <path
           d="m 44.66805,46.545269 h 1.545162 l 0.825498,-7.40831 h -1.015997 l -0.603248,5.884315 -0.582082,-5.884315 h -1.12183 l -0.560914,5.841982 -0.624415,-5.841982 h -1.132413 l 0.825497,7.40831 h 1.598078 l 0.423332,-3.947571 z"
           style="font-weight:bold"
           id="path196631" />
      </g>
      <g
         aria-label="workflow"
         id="text191600"
         style="font-size:10.5833px;line-height:1.25;font-family:'Bebas Neue';-inkscape-font-specification:'Bebas Neue';stroke-width:0.264583">
        <path
           d="m 14.47919,56.159302 h 1.545162 l 0.825498,-7.40831 h -1.015997 l -0.603248,5.884315 -0.582082,-5.884315 h -1.121829 l -0.560915,5.841981 -0.624415,-5.841981 h -1.132413 l 0.825497,7.40831 h 1.598079 l 0.423332,-3.947571 z"
           style="font-weight:bold"
           id="path196634" />
        <path
           d="m 18.500842,50.454903 c 0,-0.529165 0.232832,-0.730247 0.603248,-0.730247 0.370415,0 0.603248,0.201082 0.603248,0.730247 v 4.000488 c 0,0.529164 -0.232833,0.730247 -0.603248,0.730247 -0.370416,0 -0.603248,-0.201083 -0.603248,-0.730247 z m -1.164163,3.926404 c 0,1.18533 0.624414,1.862661 1.767411,1.862661 1.142996,0 1.767411,-0.677331 1.767411,-1.862661 v -3.852321 c 0,-1.185329 -0.624415,-1.86266 -1.767411,-1.86266 -1.142997,0 -1.767411,0.677331 -1.767411,1.86266 z"
           style="font-weight:bold"
           id="path196636" />
        <path
           d="m 25.242403,56.159302 c -0.116417,-0.275166 -0.127,-0.539749 -0.127,-0.899581 v -1.142996 c 0,-0.772581 -0.190499,-1.333496 -0.772581,-1.576912 0.518582,-0.243416 0.761998,-0.740831 0.761998,-1.502828 v -0.582082 c 0,-1.142996 -0.518582,-1.703911 -1.725078,-1.703911 h -1.756828 v 7.40831 h 1.164163 v -3.016241 h 0.402165 c 0.529165,0 0.761998,0.254 0.761998,0.941914 v 1.164163 c 0,0.603248 0.04233,0.719664 0.105833,0.910164 z m -1.894411,-6.34998 c 0.412749,0 0.592665,0.232833 0.592665,0.761998 v 0.730247 c 0,0.592665 -0.264583,0.783164 -0.698498,0.783164 h -0.455082 v -2.275409 z"
           style="font-weight:bold"
           id="path196638" />
        <path
           d="m 28.533813,56.159302 h 1.195913 l -1.619245,-4.106321 1.619245,-3.301989 h -1.164163 l -1.523995,3.227906 v -3.227906 h -1.164163 v 7.40831 h 1.164163 v -2.27541 L 27.4014,53.206561 Z"
           style="font-weight:bold"
           id="path196640" />
        <path
           d="m 30.745718,52.359897 v -3.164406 h 2.328326 v -0.444499 h -2.815158 v 7.40831 h 0.486832 v -3.354906 h 1.915577 v -0.444499 z"
           id="path196642" />
        <path
           d="M 36.630038,56.159302 V 55.714803 H 34.301712 V 48.750992 H 33.81488 v 7.40831 z"
           id="path196644" />
        <path
           d="m 37.328525,54.349558 c 0,1.079496 0.497415,1.873244 1.619245,1.873244 1.142996,0 1.640411,-0.793748 1.640411,-1.873244 v -3.788822 c 0,-1.079496 -0.497415,-1.873244 -1.640411,-1.873244 -1.12183,0 -1.619245,0.793748 -1.619245,1.873244 z m 0.486832,-3.820572 c 0,-0.80433 0.317499,-1.396995 1.132413,-1.396995 0.825497,0 1.15358,0.592665 1.15358,1.396995 v 3.852321 c 0,0.804331 -0.328083,1.396996 -1.15358,1.396996 -0.814914,0 -1.132413,-0.592665 -1.132413,-1.396996 z"
           id="path196646" />
        <path
           d="m 44.207675,50.095071 0.99483,6.064231 h 0.634998 l 1.185329,-7.40831 h -0.433915 l -1.068913,6.730979 -1.037164,-6.699229 h -0.518581 l -1.079497,6.720395 -1.111246,-6.752145 h -0.476249 l 1.195913,7.40831 h 0.677331 z"
           id="path196648" />
      </g>
      <g
         aria-label="workflow"
         id="text193474"
         style="font-size:10.5833px;line-height:1.25;font-family:'Bebas Neue';-inkscape-font-specification:'Bebas Neue';stroke-width:0.264583">
        <path
           d="m 14.193435,59.709108 0.99483,6.06423 h 0.634998 l 1.18533,-7.408309 h -0.433915 l -1.068914,6.730978 -1.037163,-6.699229 h -0.518582 l -1.079496,6.720396 -1.111247,-6.752145 h -0.476248 l 1.195913,7.408309 h 0.677331 z"
           id="path196651" />
        <path
           d="m 17.728264,63.963594 c 0,1.079497 0.497415,1.873244 1.619245,1.873244 1.142996,0 1.640411,-0.793747 1.640411,-1.873244 v -3.788821 c 0,-1.079497 -0.497415,-1.873244 -1.640411,-1.873244 -1.12183,0 -1.619245,0.793747 -1.619245,1.873244 z m 0.486832,-3.820571 c 0,-0.804331 0.317499,-1.396996 1.132413,-1.396996 0.825497,0 1.153579,0.592665 1.153579,1.396996 v 3.852321 c 0,0.804331 -0.328082,1.396996 -1.153579,1.396996 -0.814914,0 -1.132413,-0.592665 -1.132413,-1.396996 z"
           id="path196653" />
        <path
           d="m 21.792256,58.365029 v 7.408309 h 0.486832 v -3.312572 h 0.772581 c 0.846664,0 1.386412,0.275165 1.386412,1.259412 v 1.164163 c 0,0.402166 0.03175,0.666748 0.15875,0.888997 h 0.507998 c -0.15875,-0.243416 -0.179916,-0.582081 -0.179916,-0.888997 v -1.15358 c 0,-0.80433 -0.306916,-1.344079 -1.068913,-1.513411 0.730247,-0.169333 1.068913,-0.666748 1.068913,-1.534579 V 60.03719 c 0,-1.047747 -0.455082,-1.672161 -1.587495,-1.672161 z m 0.486832,3.651238 v -3.20674 h 1.047747 c 0.80433,0 1.111246,0.476249 1.111246,1.269996 v 0.698498 c 0,0.99483 -0.507998,1.238246 -1.375829,1.238246 z"
           id="path196655" />
        <path
           d="m 28.914814,65.773338 h 0.507998 l -2.254243,-3.958154 2.11666,-3.450155 h -0.507998 l -2.412992,3.91582 v -3.91582 h -0.486832 v 7.408309 h 0.486832 v -2.677574 l 0.507998,-0.804331 z"
           id="path196657" />
        <path
           d="m 31.317215,59.423359 h 1.915577 v -1.05833 h -3.07974 v 7.408309 h 1.164163 v -3.058573 h 1.502829 v -1.05833 h -1.502829 z"
           style="font-weight:bold"
           id="path196659" />
        <path
           d="m 33.793706,65.773338 h 3.07974 v -1.05833 h -1.915577 v -6.349979 h -1.164163 z"
           style="font-weight:bold"
           id="path196661" />
        <path
           d="m 38.450365,60.06894 c 0,-0.529165 0.232832,-0.730248 0.603248,-0.730248 0.370415,0 0.603248,0.201083 0.603248,0.730248 v 4.000487 c 0,0.529165 -0.232833,0.730248 -0.603248,0.730248 -0.370416,0 -0.603248,-0.201083 -0.603248,-0.730248 z m -1.164163,3.926404 c 0,1.18533 0.624414,1.862661 1.767411,1.862661 1.142996,0 1.767411,-0.677331 1.767411,-1.862661 v -3.852321 c 0,-1.18533 -0.624415,-1.862661 -1.767411,-1.862661 -1.142997,0 -1.767411,0.677331 -1.767411,1.862661 z"
           style="font-weight:bold"
           id="path196663" />
        <path
           d="m 44.578095,65.773338 h 1.545162 l 0.825497,-7.408309 h -1.015997 l -0.603248,5.884314 -0.582081,-5.884314 h -1.12183 l -0.560915,5.841981 -0.624414,-5.841981 h -1.132413 l 0.825497,7.408309 h 1.598078 l 0.423332,-3.94757 z"
           style="font-weight:bold"
           id="path196665" />
      </g>
    </g>
  </g>
</svg>
