<svg xmlns="http://www.w3.org/2000/svg" width="128" height="87" viewBox="0 0 128 87">
  <path fill="#464646" fill-rule="evenodd" d="M102.713573,115.907758 L118.029781,115.894349 L107.965997,106 L121.003373,106 C129.275972,106 136,99.2817364 136,90.9943383 L136,75.0028309 L136,64.6869796 C136,59.7315024 132.269629,54.1650685 127.667983,52.2794625 L74.2797919,30.4027035 C72.753659,29.7773434 70.2686322,29.7831853 68.738955,30.419696 L16.3026509,52.2388557 C11.7122973,54.148938 8,59.7201031 8,64.6869796 L8,75.0028309 L8,90.9943383 C8,99.2818112 14.7142188,106 22.9966274,106 L74.2417701,106 L62.1591055,94 L26.998631,94 C23.1333938,94 20,90.8743729 20,87.0041946 L20,70.9958054 C20,67.1321288 23.1388252,64 26.998631,64 L116.001369,64 C119.866606,64 123,67.1256271 123,70.9958054 L123,87.0041946 C123,90.8678712 119.861175,94 116.001369,94 L80.6548993,94 L102.713573,115.907758 Z" transform="translate(-8 -29)"/>
</svg>
