<?xml version="1.0" encoding="UTF-8" standalone="no"?>
<!-- Created with Inkscape (http://www.inkscape.org/) -->

<svg
   xmlns:dc="http://purl.org/dc/elements/1.1/"
   xmlns:cc="http://creativecommons.org/ns#"
   xmlns:rdf="http://www.w3.org/1999/02/22-rdf-syntax-ns#"
   xmlns:svg="http://www.w3.org/2000/svg"
   xmlns="http://www.w3.org/2000/svg"
   xmlns:sodipodi="http://sodipodi.sourceforge.net/DTD/sodipodi-0.dtd"
   xmlns:inkscape="http://www.inkscape.org/namespaces/inkscape"
   width="94.571152mm"
   height="28.806599mm"
   viewBox="0 0 94.571152 28.806599"
   version="1.1"
   id="svg8"
   inkscape:version="0.92.1 r15371">
  <defs
     id="defs2" />
  <sodipodi:namedview
     id="base"
     pagecolor="#ffffff"
     bordercolor="#666666"
     borderopacity="1.0"
     inkscape:pageopacity="0.0"
     inkscape:pageshadow="2"
     inkscape:zoom="0.98994949"
     inkscape:cx="187.99146"
     inkscape:cy="19.200238"
     inkscape:document-units="mm"
     inkscape:current-layer="text6607"
     showgrid="false"
     fit-margin-top="0"
     fit-margin-left="0"
     fit-margin-right="0"
     fit-margin-bottom="0"
     inkscape:window-width="1920"
     inkscape:window-height="1017"
     inkscape:window-x="-8"
     inkscape:window-y="-8"
     inkscape:window-maximized="1" />
  <metadata
     id="metadata5">
    <rdf:RDF>
      <cc:Work
         rdf:about="">
        <dc:format>image/svg+xml</dc:format>
        <dc:type
           rdf:resource="http://purl.org/dc/dcmitype/StillImage" />
        <dc:title></dc:title>
      </cc:Work>
    </rdf:RDF>
  </metadata>
  <g
     inkscape:label="Layer 1"
     inkscape:groupmode="layer"
     id="layer1"
     transform="translate(-24.529902,-162.40027)">
    <g
       transform="translate(70.277209,186.01153)"
       id="layer1-8"
       inkscape:label="Layer 1">
      <g
         transform="matrix(0.5670587,0,0,0.5670587,133.04551,-82.752415)"
         id="g6615"
         style="display:inline">
        <path
           style="fill:#000000;fill-opacity:1;stroke:none;stroke-width:0.26458335;stroke-opacity:1"
           d="m -239.31502,141.42736 c -0.086,1.59844 -0.24157,1.95425 -0.57097,2.61712 -0.79673,1.60325 -2.35162,3.15524 -3.94513,3.93778 -1.16237,0.57081 -1.64471,0.6224 -6.6675,0.71314 l -5.41448,0.0978 3.29782,3.13811 3.29781,3.13811 -5.07813,0.0126 -5.07812,0.0126 -6.69583,-6.60345 -6.69583,-6.60348 11.77808,-0.0111 c 10.88915,-0.0103 11.84613,-0.0476 12.67956,-0.49457 1.7269,-0.92614 1.8684,-1.55074 1.8684,-8.24778 0,-6.69703 -0.1415,-7.32163 -1.8684,-8.24778 -0.85675,-0.45948 -2.28659,-0.48346 -28.82327,-0.48346 -26.53668,0 -27.96651,0.024 -28.82327,0.48346 -1.7269,0.92615 -1.86839,1.55075 -1.86839,8.24778 0,6.69704 0.14149,7.32164 1.86839,8.24779 0.82951,0.44487 1.75719,0.48435 11.62123,0.4946 l 10.71975,0.0111 3.53438,3.43806 3.53438,3.43806 -16.36667,-0.0758 -15.38437,-0.0712 c -1.29731,-0.035 -1.51806,-0.20828 -2.27708,-0.58548 -1.5983,-0.79427 -3.1091,-2.38859 -3.90337,-3.98689 -0.61327,-1.23407 -0.62392,-1.39497 -0.7046,-10.64171 -0.0314,-3.59725 -0.0217,-6.28359 0.0294,-8.07252 -0.0184,-1.27395 0.11863,-2.62707 0.6138,-3.70651 0.17562,-0.37973 0.38574,-0.75903 0.6193,-1.12215 1.28545,-2.17292 3.61862,-2.94214 5.38419,-3.70161 3.17812,-1.36599 8.35429,-3.54171 13.97468,-5.86742 12.20429,-5.05012 16.30562,-6.63797 17.14541,-6.63797 0.83412,0 5.15708,1.65314 17.6928,6.76589 7.09548,2.89393 13.42353,5.5355 16.11071,6.7161 1.52177,0.71364 2.29725,1.38086 2.97122,2.33322 0.3256,0.46503 0.62105,0.97055 0.85756,1.47226 0.54141,1.30825 0.63137,2.77236 0.66498,3.88781 0.0537,1.84266 0.0663,4.58933 0.0352,8.09866 -0.0373,4.19337 -0.029,6.48593 -0.032,7.85972"
           id="path6603"
           inkscape:connector-curvature="0"
           sodipodi:nodetypes="ccccccccccccsscscscccccccccsccccssscccccc" />
        <g
           id="g6613"
           transform="matrix(1.776393,0,0,1.776393,280.95233,-10.824975)">
          <g
             aria-label="Constructive"
             style="font-style:normal;font-variant:normal;font-weight:normal;font-stretch:normal;font-size:10.58333302px;line-height:6.61458302px;font-family:'Bebas Neue';-inkscape-font-specification:'Bebas Neue';letter-spacing:0px;word-spacing:0px;fill:#000000;fill-opacity:1;stroke:none;stroke-width:0.26458332"
             id="text6607">
            <path
               d="m -285.787,78.551234 v 1.058334 c 0,0.529166 -0.23283,0.719666 -0.60325,0.719666 -0.37042,0 -0.60325,-0.1905 -0.60325,-0.719666 v -4.0005 c 0,-0.529167 0.23283,-0.73025 0.60325,-0.73025 0.37042,0 0.60325,0.201083 0.60325,0.73025 v 0.79375 h 1.10067 v -0.719667 c 0,-1.185333 -0.59267,-1.862667 -1.73567,-1.862667 -1.143,0 -1.73566,0.677334 -1.73566,1.862667 v 3.852333 c 0,1.185334 0.59266,1.862667 1.73566,1.862667 1.143,0 1.73567,-0.677333 1.73567,-1.862667 v -0.98425 z"
               style="font-style:normal;font-variant:normal;font-weight:bold;font-stretch:normal;font-family:'Bebas Neue';-inkscape-font-specification:'Bebas Neue Bold';stroke-width:0.26458332"
               id="path4505"
               inkscape:connector-curvature="0" />
            <path
               d="m -282.90072,75.609068 c 0,-0.529167 0.23283,-0.73025 0.60325,-0.73025 0.37041,0 0.60325,0.201083 0.60325,0.73025 v 4.0005 c 0,0.529166 -0.23284,0.73025 -0.60325,0.73025 -0.37042,0 -0.60325,-0.201084 -0.60325,-0.73025 z m -1.16417,3.926416 c 0,1.185334 0.62442,1.862667 1.76742,1.862667 1.143,0 1.76741,-0.677333 1.76741,-1.862667 v -3.852333 c 0,-1.185333 -0.62441,-1.862667 -1.76741,-1.862667 -1.143,0 -1.76742,0.677334 -1.76742,1.862667 z"
               style="font-style:normal;font-variant:normal;font-weight:bold;font-stretch:normal;font-family:'Bebas Neue';-inkscape-font-specification:'Bebas Neue Bold';stroke-width:0.26458332"
               id="path4507"
               inkscape:connector-curvature="0" />
            <path
               d="m -277.28643,81.313484 h 1.19591 v -7.408333 h -1.03716 v 4.434417 l -1.19592,-4.434417 h -1.4605 v 7.408333 h 1.04775 v -5.36575 z"
               style="font-style:normal;font-variant:normal;font-weight:bold;font-stretch:normal;font-family:'Bebas Neue';-inkscape-font-specification:'Bebas Neue Bold';stroke-width:0.26458332"
               id="path4509"
               inkscape:connector-curvature="0" />
            <path
               d="m -275.39483,75.683151 c 0,2.116667 2.27542,2.402417 2.27542,3.926417 0,0.529166 -0.23283,0.719666 -0.60325,0.719666 -0.37042,0 -0.60325,-0.1905 -0.60325,-0.719666 v -0.529167 h -1.10067 v 0.455083 c 0,1.185334 0.59267,1.862667 1.73567,1.862667 1.143,0 1.73567,-0.677333 1.73567,-1.862667 0,-2.116666 -2.27542,-2.402416 -2.27542,-3.926416 0,-0.529167 0.21167,-0.73025 0.58208,-0.73025 0.37042,0 0.58209,0.201083 0.58209,0.73025 v 0.306916 h 1.10066 v -0.232833 c 0,-1.185333 -0.58208,-1.862667 -1.7145,-1.862667 -1.13241,0 -1.7145,0.677334 -1.7145,1.862667 z"
               style="font-style:normal;font-variant:normal;font-weight:bold;font-stretch:normal;font-family:'Bebas Neue';-inkscape-font-specification:'Bebas Neue Bold';stroke-width:0.26458332"
               id="path4511"
               inkscape:connector-curvature="0" />
            <path
               d="m -271.63725,74.963484 h 1.21709 v 6.35 h 1.16416 v -6.35 h 1.21709 v -1.058333 h -3.59834 z"
               style="font-style:normal;font-variant:normal;font-weight:bold;font-stretch:normal;font-family:'Bebas Neue';-inkscape-font-specification:'Bebas Neue Bold';stroke-width:0.26458332"
               id="path4513"
               inkscape:connector-curvature="0" />
            <path
               d="m -263.91704,81.313484 c -0.11641,-0.275166 -0.127,-0.53975 -0.127,-0.899583 v -1.143 c 0,-0.772583 -0.1905,-1.3335 -0.77258,-1.576917 0.51858,-0.243416 0.762,-0.740833 0.762,-1.502833 v -0.582083 c 0,-1.143 -0.51858,-1.703917 -1.72508,-1.703917 h -1.75684 v 7.408333 h 1.16417 v -3.01625 h 0.40217 c 0.52916,0 0.762,0.254 0.762,0.941917 v 1.164167 c 0,0.60325 0.0423,0.719666 0.10583,0.910166 z m -1.89441,-6.35 c 0.41275,0 0.59266,0.232834 0.59266,0.762 v 0.73025 c 0,0.592667 -0.26458,0.783167 -0.6985,0.783167 h -0.45508 v -2.275417 z"
               style="font-style:normal;font-variant:normal;font-weight:bold;font-stretch:normal;font-family:'Bebas Neue';-inkscape-font-specification:'Bebas Neue Bold';stroke-width:0.26458332"
               id="path4515"
               inkscape:connector-curvature="0" />
            <path
               d="m -263.33132,73.905151 v 5.640917 c 0,1.185333 0.59267,1.862666 1.73567,1.862666 1.143,0 1.73567,-0.677333 1.73567,-1.862666 v -5.640917 h -1.10067 v 5.715 c 0,0.529167 -0.23283,0.719667 -0.60325,0.719667 -0.37042,0 -0.60325,-0.1905 -0.60325,-0.719667 v -5.715 z"
               style="font-style:normal;font-variant:normal;font-weight:bold;font-stretch:normal;font-family:'Bebas Neue';-inkscape-font-specification:'Bebas Neue Bold';stroke-width:0.26458332"
               id="path4517"
               inkscape:connector-curvature="0" />
            <path
               d="m -256.78619,78.551234 v 1.058334 c 0,0.529166 -0.23283,0.719666 -0.60325,0.719666 -0.37041,0 -0.60325,-0.1905 -0.60325,-0.719666 v -4.0005 c 0,-0.529167 0.23284,-0.73025 0.60325,-0.73025 0.37042,0 0.60325,0.201083 0.60325,0.73025 v 0.79375 h 1.10067 v -0.719667 c 0,-1.185333 -0.59267,-1.862667 -1.73567,-1.862667 -1.143,0 -1.73566,0.677334 -1.73566,1.862667 v 3.852333 c 0,1.185334 0.59266,1.862667 1.73566,1.862667 1.143,0 1.73567,-0.677333 1.73567,-1.862667 v -0.98425 z"
               style="font-style:normal;font-variant:normal;font-weight:bold;font-stretch:normal;font-family:'Bebas Neue';-inkscape-font-specification:'Bebas Neue Bold';stroke-width:0.26458332"
               id="path4519"
               inkscape:connector-curvature="0" />
            <path
               d="m -255.3075,74.963484 h 1.21709 v 6.35 h 1.16416 v -6.35 h 1.21709 v -1.058333 h -3.59834 z"
               style="font-style:normal;font-variant:normal;font-weight:bold;font-stretch:normal;font-family:'Bebas Neue';-inkscape-font-specification:'Bebas Neue Bold';stroke-width:0.26458332"
               id="path4521"
               inkscape:connector-curvature="0" />
            <path
               d="m -251.20679,81.313484 h 1.16417 v -7.408333 h -1.16417 z"
               style="font-style:normal;font-variant:normal;font-weight:bold;font-stretch:normal;font-family:'Bebas Neue';-inkscape-font-specification:'Bebas Neue Bold';stroke-width:0.26458332"
               id="path4523"
               inkscape:connector-curvature="0" />
            <path
               d="m -248.33391,73.905151 h -1.17475 l 1.143,7.408333 h 1.73567 l 1.143,-7.408333 h -1.06892 l -0.889,6.043083 z"
               style="font-style:normal;font-variant:normal;font-weight:bold;font-stretch:normal;font-family:'Bebas Neue';-inkscape-font-specification:'Bebas Neue Bold';stroke-width:0.26458332"
               id="path4525"
               inkscape:connector-curvature="0" />
            <path
               d="m -243.77944,74.963484 h 2.01084 v -1.058333 h -3.175 v 7.408333 h 3.175 v -1.058333 h -2.01084 v -2.169583 h 1.59809 v -1.058334 h -1.59809 z"
               style="font-style:normal;font-variant:normal;font-weight:bold;font-stretch:normal;font-family:'Bebas Neue';-inkscape-font-specification:'Bebas Neue Bold';stroke-width:0.26458332"
               id="path4527"
               inkscape:connector-curvature="0" />
          </g>
          <g
             aria-label="Realities"
             style="font-style:normal;font-variant:normal;font-weight:normal;font-stretch:normal;font-size:10.58333302px;line-height:6.61458302px;font-family:'Bebas Neue';-inkscape-font-specification:'Bebas Neue';letter-spacing:0px;word-spacing:0px;fill:#000000;fill-opacity:1;stroke:none;stroke-width:0.26458332"
             id="text6611">
            <path
               d="m -284.47465,89.743217 c -0.11642,-0.275166 -0.127,-0.53975 -0.127,-0.899583 v -1.143 c 0,-0.772583 -0.1905,-1.3335 -0.77259,-1.576916 0.51859,-0.243417 0.762,-0.740834 0.762,-1.502834 v -0.582083 c 0,-1.143 -0.51858,-1.703917 -1.72508,-1.703917 h -1.75683 v 7.408333 h 1.16416 v -3.016249 h 0.40217 c 0.52917,0 0.762,0.254 0.762,0.941916 v 1.164167 c 0,0.60325 0.0423,0.719666 0.10583,0.910166 z m -1.89442,-6.349999 c 0.41275,0 0.59267,0.232833 0.59267,0.762 v 0.73025 c 0,0.592666 -0.26459,0.783166 -0.6985,0.783166 h -0.45509 v -2.275416 z"
               style="font-style:normal;font-variant:normal;font-weight:bold;font-stretch:normal;font-family:'Bebas Neue';-inkscape-font-specification:'Bebas Neue Bold';stroke-width:0.26458332"
               id="path4530"
               inkscape:connector-curvature="0" />
            <path
               d="m -282.67185,83.393218 h 2.01083 v -1.058334 h -3.175 v 7.408333 h 3.175 v -1.058333 h -2.01083 v -2.169583 h 1.59808 v -1.058333 h -1.59808 z"
               style="font-style:normal;font-variant:normal;font-weight:bold;font-stretch:normal;font-family:'Bebas Neue';-inkscape-font-specification:'Bebas Neue Bold';stroke-width:0.26458332"
               id="path4532"
               inkscape:connector-curvature="0" />
            <path
               d="m -277.36761,82.334884 h -1.70392 l -1.18533,7.408333 h 1.06891 l 0.20109,-1.344083 h 1.42875 l 0.20108,1.344083 h 1.17475 z m -0.91017,1.312334 0.56092,3.7465 h -1.12184 z"
               style="font-style:normal;font-variant:normal;font-weight:bold;font-stretch:normal;font-family:'Bebas Neue';-inkscape-font-specification:'Bebas Neue Bold';stroke-width:0.26458332"
               id="path4534"
               inkscape:connector-curvature="0" />
            <path
               d="m -275.65047,89.743217 h 3.07975 v -1.058333 h -1.91558 v -6.35 h -1.16417 z"
               style="font-style:normal;font-variant:normal;font-weight:bold;font-stretch:normal;font-family:'Bebas Neue';-inkscape-font-specification:'Bebas Neue Bold';stroke-width:0.26458332"
               id="path4536"
               inkscape:connector-curvature="0" />
            <path
               d="m -272.05379,89.743217 h 1.16417 v -7.408333 h -1.16417 z"
               style="font-style:normal;font-variant:normal;font-weight:bold;font-stretch:normal;font-family:'Bebas Neue';-inkscape-font-specification:'Bebas Neue Bold';stroke-width:0.26458332"
               id="path4538"
               inkscape:connector-curvature="0" />
            <path
               d="m -270.38741,83.393218 h 1.21708 v 6.349999 h 1.16417 v -6.349999 h 1.21708 v -1.058334 h -3.59833 z"
               style="font-style:normal;font-variant:normal;font-weight:bold;font-stretch:normal;font-family:'Bebas Neue';-inkscape-font-specification:'Bebas Neue Bold';stroke-width:0.26458332"
               id="path4540"
               inkscape:connector-curvature="0" />
            <path
               d="m -266.2867,89.743217 h 1.16417 v -7.408333 h -1.16417 z"
               style="font-style:normal;font-variant:normal;font-weight:bold;font-stretch:normal;font-family:'Bebas Neue';-inkscape-font-specification:'Bebas Neue Bold';stroke-width:0.26458332"
               id="path4542"
               inkscape:connector-curvature="0" />
            <path
               d="m -263.11749,83.393218 h 2.01084 v -1.058334 h -3.175 v 7.408333 h 3.175 v -1.058333 h -2.01084 v -2.169583 h 1.59809 v -1.058333 h -1.59809 z"
               style="font-style:normal;font-variant:normal;font-weight:bold;font-stretch:normal;font-family:'Bebas Neue';-inkscape-font-specification:'Bebas Neue Bold';stroke-width:0.26458332"
               id="path4544"
               inkscape:connector-curvature="0" />
            <path
               d="m -260.54375,84.112884 c 0,2.116667 2.27541,2.402417 2.27541,3.926417 0,0.529167 -0.23283,0.719666 -0.60325,0.719666 -0.37041,0 -0.60325,-0.190499 -0.60325,-0.719666 v -0.529167 h -1.10066 v 0.455084 c 0,1.185333 0.59266,1.862666 1.73566,1.862666 1.143,0 1.73567,-0.677333 1.73567,-1.862666 0,-2.116667 -2.27542,-2.402417 -2.27542,-3.926417 0,-0.529167 0.21167,-0.73025 0.58209,-0.73025 0.37041,0 0.58208,0.201083 0.58208,0.73025 v 0.306917 h 1.10067 v -0.232834 c 0,-1.185333 -0.58209,-1.862666 -1.7145,-1.862666 -1.13242,0 -1.7145,0.677333 -1.7145,1.862666 z"
               style="font-style:normal;font-variant:normal;font-weight:bold;font-stretch:normal;font-family:'Bebas Neue';-inkscape-font-specification:'Bebas Neue Bold';stroke-width:0.26458332"
               id="path4546"
               inkscape:connector-curvature="0" />
          </g>
        </g>
      </g>
    </g>
  </g>
</svg>
