<?xml version="1.0" encoding="UTF-8" standalone="no"?>
<!-- Created with Inkscape (http://www.inkscape.org/) -->

<svg
   width="96.93322mm"
   height="62.472107mm"
   viewBox="0 0 96.93322 62.472107"
   version="1.1"
   id="svg5"
   xmlns="http://www.w3.org/2000/svg"
   xmlns:svg="http://www.w3.org/2000/svg">
  <defs
     id="defs2" />
  <g
     id="layer1"
     transform="translate(47.279027,-80.190581)">
    <g
       style="display:inline"
       id="g6615"
       transform="matrix(0.5670587,0,0,0.5670587,131.51379,21.049426)">
      <path
         id="path6603"
         d="m -239.31502,141.42736 c -0.086,1.59844 -0.24157,1.95425 -0.57097,2.61712 -0.79673,1.60325 -2.35162,3.15524 -3.94513,3.93778 -1.16237,0.57081 -1.64471,0.6224 -6.6675,0.71314 l -5.41448,0.0978 3.29782,3.13811 3.29781,3.13811 -5.07813,0.0126 -5.07812,0.0126 -6.69583,-6.60345 -6.69583,-6.60348 11.77808,-0.0111 c 10.88915,-0.0103 11.84613,-0.0476 12.67956,-0.49457 1.7269,-0.92614 1.8684,-1.55074 1.8684,-8.24778 0,-6.69703 -0.1415,-7.32163 -1.8684,-8.24778 -0.85675,-0.45948 -2.28659,-0.48346 -28.82327,-0.48346 -26.53668,0 -27.96651,0.024 -28.82327,0.48346 -1.7269,0.92615 -1.86839,1.55075 -1.86839,8.24778 0,6.69704 0.14149,7.32164 1.86839,8.24779 0.82951,0.44487 1.75719,0.48435 11.62123,0.4946 l 10.71975,0.0111 3.53438,3.43806 3.53438,3.43806 -16.36667,-0.0758 -15.38437,-0.0712 c -1.29731,-0.035 -1.51806,-0.20828 -2.27708,-0.58548 -1.5983,-0.79427 -3.1091,-2.38859 -3.90337,-3.98689 -0.61327,-1.23407 -0.62392,-1.39497 -0.7046,-10.64171 -0.0314,-3.59725 -0.0217,-6.28359 0.0294,-8.07252 -0.0184,-1.27395 0.11863,-2.62707 0.6138,-3.70651 0.17562,-0.37973 0.38574,-0.75903 0.6193,-1.12215 1.28545,-2.17292 3.61862,-2.94214 5.38419,-3.70161 3.17812,-1.36599 8.35429,-3.54171 13.97468,-5.86742 12.20429,-5.05012 16.30562,-6.63797 17.14541,-6.63797 0.83412,0 5.15708,1.65314 17.6928,6.76589 7.09548,2.89393 13.42353,5.5355 16.11071,6.7161 1.52177,0.71364 2.29725,1.38086 2.97122,2.33322 0.3256,0.46503 0.62105,0.97055 0.85756,1.47226 0.54141,1.30825 0.63137,2.77236 0.66498,3.88781 0.0537,1.84266 0.0663,4.58933 0.0352,8.09866 -0.0373,4.19337 -0.029,6.48593 -0.032,7.85972"
         style="fill:#000000;fill-opacity:1;stroke:none;stroke-width:0.264583;stroke-opacity:1" />
      <g
         aria-label="Constructive"
         id="text6607"
         style="font-size:10.5833px;line-height:6.61458px;font-family:'Bebas Neue';-inkscape-font-specification:'Bebas Neue';letter-spacing:0px;word-spacing:0px;stroke-width:0.264583"
         transform="matrix(1.776393,0,0,1.776393,280.95233,-10.824975)">
        <path
           id="path1410"
           style="font-weight:bold;-inkscape-font-specification:'Bebas Neue Bold'"
           d="m -243.79243,74.963504 h 2.01082 v -1.05833 h -3.17499 v 7.40831 h 3.17499 v -1.05833 h -2.01082 v -2.169576 h 1.59807 v -1.05833 h -1.59807 z m -4.55083,-1.05833 h -1.17474 l 1.14299,7.40831 h 1.73567 l 1.14299,-7.40831 h -1.06891 l -0.889,6.043065 z m -2.87866,7.40831 h 1.16416 v -7.40831 h -1.16416 z m -4.10633,-6.34998 h 1.21708 v 6.34998 h 1.16416 v -6.34998 h 1.21708 v -1.05833 h -3.59832 z m -1.47108,3.587739 v 1.05833 c 0,0.529165 -0.23283,0.719664 -0.60324,0.719664 -0.37042,0 -0.60325,-0.190499 -0.60325,-0.719664 v -4.000487 c 0,-0.529165 0.23283,-0.730248 0.60325,-0.730248 0.37041,0 0.60324,0.201083 0.60324,0.730248 v 0.793747 h 1.10067 v -0.719664 c 0,-1.18533 -0.59267,-1.862661 -1.73566,-1.862661 -1.143,0 -1.73567,0.677331 -1.73567,1.862661 v 3.852321 c 0,1.185329 0.59267,1.862661 1.73567,1.862661 1.14299,0 1.73566,-0.677332 1.73566,-1.862661 v -0.984247 z m -6.54048,-4.646069 v 5.640899 c 0,1.18533 0.59266,1.862661 1.73566,1.862661 1.143,0 1.73566,-0.677331 1.73566,-1.862661 v -5.640899 h -1.10066 v 5.714982 c 0,0.529165 -0.23284,0.719665 -0.60325,0.719665 -0.37042,0 -0.60325,-0.1905 -0.60325,-0.719665 v -5.714982 z m -0.58209,7.40831 c -0.11642,-0.275166 -0.127,-0.539748 -0.127,-0.89958 v -1.142997 c 0,-0.772581 -0.1905,-1.333495 -0.77258,-1.576911 0.51858,-0.243416 0.762,-0.740831 0.762,-1.502829 v -0.582081 c 0,-1.142997 -0.51858,-1.703912 -1.72508,-1.703912 h -1.75683 v 7.40831 h 1.16417 v -3.01624 h 0.40216 c 0.52917,0 0.762,0.253999 0.762,0.941913 v 1.164163 c 0,0.603249 0.0423,0.719665 0.10583,0.910164 z m -1.89441,-6.34998 c 0.41275,0 0.59266,0.232833 0.59266,0.761998 v 0.730248 c 0,0.592664 -0.26458,0.783164 -0.69849,0.783164 h -0.45508 v -2.27541 z m -5.83141,0 h 1.21708 v 6.34998 h 1.16417 v -6.34998 h 1.21707 v -1.05833 h -3.59832 z m -3.76766,0.719665 c 0,2.11666 2.27541,2.402409 2.27541,3.926404 0,0.529165 -0.23283,0.719664 -0.60325,0.719664 -0.37041,0 -0.60324,-0.190499 -0.60324,-0.719664 v -0.529165 h -1.10067 v 0.455082 c 0,1.185329 0.59267,1.862661 1.73566,1.862661 1.143,0 1.73566,-0.677332 1.73566,-1.862661 0,-2.11666 -2.2754,-2.402409 -2.2754,-3.926404 0,-0.529165 0.21166,-0.730248 0.58208,-0.730248 0.37041,0 0.58208,0.201083 0.58208,0.730248 v 0.306915 h 1.10066 v -0.232832 c 0,-1.18533 -0.58208,-1.862661 -1.71449,-1.862661 -1.13242,0 -1.7145,0.677331 -1.7145,1.862661 z m -1.88382,5.630315 h 1.19591 v -7.40831 h -1.03716 v 4.434403 l -1.19592,-4.434403 h -1.46049 v 7.40831 h 1.04774 v -5.365733 z m -5.60915,-5.704398 c 0,-0.529165 0.23283,-0.730248 0.60325,-0.730248 0.37041,0 0.60324,0.201083 0.60324,0.730248 v 4.000487 c 0,0.529165 -0.23283,0.730248 -0.60324,0.730248 -0.37042,0 -0.60325,-0.201083 -0.60325,-0.730248 z m -1.16417,3.926404 c 0,1.185329 0.62442,1.862661 1.76742,1.862661 1.14299,0 1.76741,-0.677332 1.76741,-1.862661 v -3.852321 c 0,-1.18533 -0.62442,-1.862661 -1.76741,-1.862661 -1.143,0 -1.76742,0.677331 -1.76742,1.862661 z m -1.71449,-0.984247 v 1.05833 c 0,0.529165 -0.23283,0.719664 -0.60324,0.719664 -0.37042,0 -0.60325,-0.190499 -0.60325,-0.719664 v -4.000487 c 0,-0.529165 0.23283,-0.730248 0.60325,-0.730248 0.37041,0 0.60324,0.201083 0.60324,0.730248 v 0.793747 h 1.10067 v -0.719664 c 0,-1.18533 -0.59267,-1.862661 -1.73566,-1.862661 -1.143,0 -1.73567,0.677331 -1.73567,1.862661 v 3.852321 c 0,1.185329 0.59267,1.862661 1.73567,1.862661 1.14299,0 1.73566,-0.677332 1.73566,-1.862661 v -0.984247 z" />
      </g>
      <g
         aria-label="Realities"
         id="text6611"
         style="font-size:10.5833px;line-height:6.61458px;font-family:'Bebas Neue';-inkscape-font-specification:'Bebas Neue';letter-spacing:0px;word-spacing:0px;stroke-width:0.264583"
         transform="matrix(1.776393,0,0,1.776393,281.04339,-10.096525)">
        <path
           id="path1385"
           style="font-weight:bold;-inkscape-font-specification:'Bebas Neue Bold'"
           d="m -260.51405,84.112902 c 0,2.11666 2.27541,2.402409 2.27541,3.926404 0,0.529165 -0.23283,0.719665 -0.60325,0.719665 -0.37041,0 -0.60324,-0.1905 -0.60324,-0.719665 v -0.529165 h -1.10067 v 0.455082 c 0,1.18533 0.59267,1.862661 1.73566,1.862661 1.143,0 1.73566,-0.677331 1.73566,-1.862661 0,-2.11666 -2.2754,-2.402409 -2.2754,-3.926404 0,-0.529165 0.21166,-0.730248 0.58208,-0.730248 0.37041,0 0.58208,0.201083 0.58208,0.730248 v 0.306916 h 1.10066 v -0.232833 c 0,-1.185329 -0.58208,-1.862661 -1.71449,-1.862661 -1.13242,0 -1.7145,0.677332 -1.7145,1.862661 z m -2.58232,-0.719664 h 2.01083 v -1.05833 h -3.17499 v 7.408309 h 3.17499 v -1.058329 h -2.01083 v -2.169577 h 1.59808 v -1.05833 h -1.59808 z m -3.175,6.349979 h 1.16416 v -7.408309 h -1.16416 z m -4.10633,-6.349979 h 1.21708 v 6.349979 h 1.16416 v -6.349979 h 1.21708 v -1.05833 h -3.59832 z m -1.67216,6.349979 h 1.16416 v -7.408309 h -1.16416 z m -3.58775,0 h 3.07974 v -1.058329 h -1.91558 v -6.34998 h -1.16416 z m -1.72507,-7.408309 h -1.70392 l -1.18533,7.408309 h 1.06892 l 0.20108,-1.344079 h 1.42875 l 0.20108,1.344079 h 1.17475 z m -0.91017,1.312329 0.56092,3.746488 h -1.12183 z m -4.40265,-0.253999 h 2.01083 v -1.05833 h -3.17499 v 7.408309 h 3.17499 v -1.058329 h -2.01083 v -2.169577 h 1.59808 v -1.05833 h -1.59808 z m -1.79917,6.349979 c -0.11641,-0.275165 -0.127,-0.539748 -0.127,-0.89958 v -1.142996 c 0,-0.772581 -0.1905,-1.333496 -0.77258,-1.576912 0.51859,-0.243416 0.762,-0.740831 0.762,-1.502829 v -0.582081 c 0,-1.142996 -0.51858,-1.703911 -1.72508,-1.703911 h -1.75682 v 7.408309 h 1.16416 v -3.01624 h 0.40216 c 0.52917,0 0.762,0.253999 0.762,0.941914 v 1.164163 c 0,0.603248 0.0423,0.719664 0.10583,0.910163 z m -1.89441,-6.349979 c 0.41275,0 0.59267,0.232832 0.59267,0.761997 v 0.730248 c 0,0.592665 -0.26458,0.783164 -0.6985,0.783164 h -0.45508 v -2.275409 z" />
      </g>
      <g
         aria-label="Constructive"
         id="g1611"
         style="font-size:10.5833px;line-height:6.61458px;font-family:'Bebas Neue';-inkscape-font-specification:'Bebas Neue';letter-spacing:0px;word-spacing:0px;fill:#ffffff;stroke-width:0.264583"
         transform="matrix(1.776393,0,0,1.776393,285.14092,48.543672)">
        <path
           id="path1609"
           style="font-weight:bold;-inkscape-font-specification:'Bebas Neue Bold';fill:#ffffff"
           d="m -243.79243,74.963504 h 2.01082 v -1.05833 h -3.17499 v 7.40831 h 3.17499 v -1.05833 h -2.01082 v -2.169576 h 1.59807 v -1.05833 h -1.59807 z m -4.55083,-1.05833 h -1.17474 l 1.14299,7.40831 h 1.73567 l 1.14299,-7.40831 h -1.06891 l -0.889,6.043065 z m -2.87866,7.40831 h 1.16416 v -7.40831 h -1.16416 z m -4.10633,-6.34998 h 1.21708 v 6.34998 h 1.16416 v -6.34998 h 1.21708 v -1.05833 h -3.59832 z m -1.47108,3.587739 v 1.05833 c 0,0.529165 -0.23283,0.719664 -0.60324,0.719664 -0.37042,0 -0.60325,-0.190499 -0.60325,-0.719664 v -4.000487 c 0,-0.529165 0.23283,-0.730248 0.60325,-0.730248 0.37041,0 0.60324,0.201083 0.60324,0.730248 v 0.793747 h 1.10067 v -0.719664 c 0,-1.18533 -0.59267,-1.862661 -1.73566,-1.862661 -1.143,0 -1.73567,0.677331 -1.73567,1.862661 v 3.852321 c 0,1.185329 0.59267,1.862661 1.73567,1.862661 1.14299,0 1.73566,-0.677332 1.73566,-1.862661 v -0.984247 z m -6.54048,-4.646069 v 5.640899 c 0,1.18533 0.59266,1.862661 1.73566,1.862661 1.143,0 1.73566,-0.677331 1.73566,-1.862661 v -5.640899 h -1.10066 v 5.714982 c 0,0.529165 -0.23284,0.719665 -0.60325,0.719665 -0.37042,0 -0.60325,-0.1905 -0.60325,-0.719665 v -5.714982 z m -0.58209,7.40831 c -0.11642,-0.275166 -0.127,-0.539748 -0.127,-0.89958 v -1.142997 c 0,-0.772581 -0.1905,-1.333495 -0.77258,-1.576911 0.51858,-0.243416 0.762,-0.740831 0.762,-1.502829 v -0.582081 c 0,-1.142997 -0.51858,-1.703912 -1.72508,-1.703912 h -1.75683 v 7.40831 h 1.16417 v -3.01624 h 0.40216 c 0.52917,0 0.762,0.253999 0.762,0.941913 v 1.164163 c 0,0.603249 0.0423,0.719665 0.10583,0.910164 z m -1.89441,-6.34998 c 0.41275,0 0.59266,0.232833 0.59266,0.761998 v 0.730248 c 0,0.592664 -0.26458,0.783164 -0.69849,0.783164 h -0.45508 v -2.27541 z m -5.83141,0 h 1.21708 v 6.34998 h 1.16417 v -6.34998 h 1.21707 v -1.05833 h -3.59832 z m -3.76766,0.719665 c 0,2.11666 2.27541,2.402409 2.27541,3.926404 0,0.529165 -0.23283,0.719664 -0.60325,0.719664 -0.37041,0 -0.60324,-0.190499 -0.60324,-0.719664 v -0.529165 h -1.10067 v 0.455082 c 0,1.185329 0.59267,1.862661 1.73566,1.862661 1.143,0 1.73566,-0.677332 1.73566,-1.862661 0,-2.11666 -2.2754,-2.402409 -2.2754,-3.926404 0,-0.529165 0.21166,-0.730248 0.58208,-0.730248 0.37041,0 0.58208,0.201083 0.58208,0.730248 v 0.306915 h 1.10066 v -0.232832 c 0,-1.18533 -0.58208,-1.862661 -1.71449,-1.862661 -1.13242,0 -1.7145,0.677331 -1.7145,1.862661 z m -1.88382,5.630315 h 1.19591 v -7.40831 h -1.03716 v 4.434403 l -1.19592,-4.434403 h -1.46049 v 7.40831 h 1.04774 v -5.365733 z m -5.60915,-5.704398 c 0,-0.529165 0.23283,-0.730248 0.60325,-0.730248 0.37041,0 0.60324,0.201083 0.60324,0.730248 v 4.000487 c 0,0.529165 -0.23283,0.730248 -0.60324,0.730248 -0.37042,0 -0.60325,-0.201083 -0.60325,-0.730248 z m -1.16417,3.926404 c 0,1.185329 0.62442,1.862661 1.76742,1.862661 1.14299,0 1.76741,-0.677332 1.76741,-1.862661 v -3.852321 c 0,-1.18533 -0.62442,-1.862661 -1.76741,-1.862661 -1.143,0 -1.76742,0.677331 -1.76742,1.862661 z m -1.71449,-0.984247 v 1.05833 c 0,0.529165 -0.23283,0.719664 -0.60324,0.719664 -0.37042,0 -0.60325,-0.190499 -0.60325,-0.719664 v -4.000487 c 0,-0.529165 0.23283,-0.730248 0.60325,-0.730248 0.37041,0 0.60324,0.201083 0.60324,0.730248 v 0.793747 h 1.10067 v -0.719664 c 0,-1.18533 -0.59267,-1.862661 -1.73566,-1.862661 -1.143,0 -1.73567,0.677331 -1.73567,1.862661 v 3.852321 c 0,1.185329 0.59267,1.862661 1.73567,1.862661 1.14299,0 1.73566,-0.677332 1.73566,-1.862661 v -0.984247 z" />
      </g>
      <g
         aria-label="Realities"
         id="g1615"
         style="font-size:10.5833px;line-height:6.61458px;font-family:'Bebas Neue';-inkscape-font-specification:'Bebas Neue';letter-spacing:0px;word-spacing:0px;fill:#ffffff;stroke-width:0.264583"
         transform="matrix(1.776393,0,0,1.776393,285.23197,49.272122)">
        <path
           id="path1613"
           style="font-weight:bold;-inkscape-font-specification:'Bebas Neue Bold';fill:#ffffff"
           d="m -260.51405,84.112902 c 0,2.11666 2.27541,2.402409 2.27541,3.926404 0,0.529165 -0.23283,0.719665 -0.60325,0.719665 -0.37041,0 -0.60324,-0.1905 -0.60324,-0.719665 v -0.529165 h -1.10067 v 0.455082 c 0,1.18533 0.59267,1.862661 1.73566,1.862661 1.143,0 1.73566,-0.677331 1.73566,-1.862661 0,-2.11666 -2.2754,-2.402409 -2.2754,-3.926404 0,-0.529165 0.21166,-0.730248 0.58208,-0.730248 0.37041,0 0.58208,0.201083 0.58208,0.730248 v 0.306916 h 1.10066 v -0.232833 c 0,-1.185329 -0.58208,-1.862661 -1.71449,-1.862661 -1.13242,0 -1.7145,0.677332 -1.7145,1.862661 z m -2.58232,-0.719664 h 2.01083 v -1.05833 h -3.17499 v 7.408309 h 3.17499 v -1.058329 h -2.01083 v -2.169577 h 1.59808 v -1.05833 h -1.59808 z m -3.175,6.349979 h 1.16416 v -7.408309 h -1.16416 z m -4.10633,-6.349979 h 1.21708 v 6.349979 h 1.16416 v -6.349979 h 1.21708 v -1.05833 h -3.59832 z m -1.67216,6.349979 h 1.16416 v -7.408309 h -1.16416 z m -3.58775,0 h 3.07974 v -1.058329 h -1.91558 v -6.34998 h -1.16416 z m -1.72507,-7.408309 h -1.70392 l -1.18533,7.408309 h 1.06892 l 0.20108,-1.344079 h 1.42875 l 0.20108,1.344079 h 1.17475 z m -0.91017,1.312329 0.56092,3.746488 h -1.12183 z m -4.40265,-0.253999 h 2.01083 v -1.05833 h -3.17499 v 7.408309 h 3.17499 v -1.058329 h -2.01083 v -2.169577 h 1.59808 v -1.05833 h -1.59808 z m -1.79917,6.349979 c -0.11641,-0.275165 -0.127,-0.539748 -0.127,-0.89958 v -1.142996 c 0,-0.772581 -0.1905,-1.333496 -0.77258,-1.576912 0.51859,-0.243416 0.762,-0.740831 0.762,-1.502829 v -0.582081 c 0,-1.142996 -0.51858,-1.703911 -1.72508,-1.703911 h -1.75682 v 7.408309 h 1.16416 v -3.01624 h 0.40216 c 0.52917,0 0.762,0.253999 0.762,0.941914 v 1.164163 c 0,0.603248 0.0423,0.719664 0.10583,0.910163 z m -1.89441,-6.349979 c 0.41275,0 0.59267,0.232832 0.59267,0.761997 v 0.730248 c 0,0.592665 -0.26458,0.783164 -0.6985,0.783164 h -0.45508 v -2.275409 z" />
      </g>
      <path
         id="path1607"
         d="m -235.12643,200.79601 c -0.086,1.59844 -0.24157,1.95425 -0.57097,2.61712 -0.79673,1.60325 -2.35162,3.15524 -3.94513,3.93778 -1.16237,0.57081 -1.64471,0.6224 -6.6675,0.71314 l -5.41448,0.0978 3.29782,3.13811 3.29781,3.13811 -5.07813,0.0126 -5.07812,0.0126 -6.69583,-6.60345 -6.69583,-6.60348 11.77808,-0.0111 c 10.88915,-0.0103 11.84613,-0.0476 12.67956,-0.49457 1.7269,-0.92614 1.8684,-1.55074 1.8684,-8.24778 0,-6.69703 -0.1415,-7.32163 -1.8684,-8.24778 -0.85675,-0.45948 -2.28659,-0.48346 -28.82327,-0.48346 -26.53668,0 -27.96651,0.024 -28.82327,0.48346 -1.7269,0.92615 -1.86839,1.55075 -1.86839,8.24778 0,6.69704 0.14149,7.32164 1.86839,8.24779 0.82951,0.44487 1.75719,0.48435 11.62123,0.4946 l 10.71975,0.0111 3.53438,3.43806 3.53438,3.43806 -16.36667,-0.0758 -15.38437,-0.0712 c -1.29731,-0.035 -1.51806,-0.20828 -2.27708,-0.58548 -1.5983,-0.79427 -3.1091,-2.38859 -3.90337,-3.98689 -0.61327,-1.23407 -0.62392,-1.39497 -0.7046,-10.64171 -0.0314,-3.59725 -0.0217,-6.28359 0.0294,-8.07252 -0.0184,-1.27395 0.11863,-2.62707 0.6138,-3.70651 0.17562,-0.37973 0.38574,-0.75903 0.6193,-1.12215 1.28545,-2.17292 3.61862,-2.94214 5.38419,-3.70161 3.17812,-1.36599 8.35429,-3.54171 13.97468,-5.86742 12.20429,-5.05012 16.30562,-6.63797 17.14541,-6.63797 0.83412,0 5.15708,1.65314 17.6928,6.76589 7.09548,2.89393 13.42353,5.5355 16.11071,6.7161 1.52177,0.71364 2.29725,1.38086 2.97122,2.33322 0.3256,0.46503 0.62105,0.97055 0.85756,1.47226 0.54141,1.30825 0.63137,2.77236 0.66498,3.88781 0.0537,1.84266 0.0663,4.58933 0.0352,8.09866 -0.0373,4.19337 -0.029,6.48593 -0.032,7.85972"
         style="fill:#ffffff;fill-opacity:1;stroke:none;stroke-width:0.264583;stroke-opacity:1" />
    </g>
  </g>
</svg>
