<?xml version="1.0" encoding="UTF-8" standalone="no"?>
<!-- Created with Inkscape (http://www.inkscape.org/) -->

<svg
   xmlns:dc="http://purl.org/dc/elements/1.1/"
   xmlns:cc="http://creativecommons.org/ns#"
   xmlns:rdf="http://www.w3.org/1999/02/22-rdf-syntax-ns#"
   xmlns:svg="http://www.w3.org/2000/svg"
   xmlns="http://www.w3.org/2000/svg"
   xmlns:sodipodi="http://sodipodi.sourceforge.net/DTD/sodipodi-0.dtd"
   xmlns:inkscape="http://www.inkscape.org/namespaces/inkscape"
   width="310.4317mm"
   height="318.11285mm"
   viewBox="0 0 310.4317 318.11285"
   version="1.1"
   id="svg1198"
   inkscape:version="0.92.0 r15299"
   sodipodi:docname="lock2.svg">
  <defs
     id="defs1192" />
  <sodipodi:namedview
     id="base"
     pagecolor="#ffffff"
     bordercolor="#666666"
     borderopacity="1.0"
     inkscape:pageopacity="0.0"
     inkscape:pageshadow="2"
     inkscape:zoom="0.35"
     inkscape:cx="-1039.0717"
     inkscape:cy="795.44382"
     inkscape:document-units="mm"
     inkscape:current-layer="layer1"
     showgrid="false"
     fit-margin-top="50"
     fit-margin-left="50"
     fit-margin-right="50"
     fit-margin-bottom="50"
     inkscape:window-width="3840"
     inkscape:window-height="2083"
     inkscape:window-x="-9"
     inkscape:window-y="-9"
     inkscape:window-maximized="1" />
  <metadata
     id="metadata1195">
    <rdf:RDF>
      <cc:Work
         rdf:about="">
        <dc:format>image/svg+xml</dc:format>
        <dc:type
           rdf:resource="http://purl.org/dc/dcmitype/StillImage" />
        <dc:title></dc:title>
      </cc:Work>
    </rdf:RDF>
  </metadata>
  <g
     inkscape:label="Layer 1"
     inkscape:groupmode="layer"
     id="layer1"
     transform="translate(-380.75439,-41.18167)">
    <path
       style="fill:#4c4c4c;stroke-width:0.841627"
       d="m 451.87459,250.15624 v -59.13828 l 20.8303,-15.54245 c 11.4567,-8.54835 29.903,-22.31286 40.9919,-30.58781 11.089,-8.27495 20.6117,-15.21803 21.1617,-15.42907 0.5499,-0.21105 12.8756,8.46633 27.3902,19.28305 14.5147,10.81672 33.1128,24.67289 41.3292,30.79148 l 14.9389,11.12471 v 59.31832 59.31833 h -83.3211 -83.3211 z m 122.8776,7.02198 v -25.18424 l -2.1789,-2.58945 c -1.1984,-1.4242 -2.7133,-2.58946 -3.3665,-2.58946 -0.9507,0 -1.1876,-1.8527 -1.1876,-9.28493 0,-10.71225 -0.7997,-13.28825 -5.8139,-18.72802 -11.396,-12.36316 -37.1159,-13.51047 -51.3123,-2.28892 -6.1381,4.85192 -8.0336,9.37274 -8.3873,20.00351 -0.2528,7.60128 -0.4887,8.74602 -1.9649,9.53604 -3.6569,1.9571 -4.0599,5.07987 -4.0599,31.45468 v 24.85503 h 39.1356 39.1357 z m -44.055,12.70397 c -1.0532,-1.16382 -1.3929,-3.19092 -1.3929,-8.31322 0,-5.12145 -0.3215,-7.04095 -1.3179,-7.86789 -6.2837,-5.215 -3.9286,-15.80663 4.2053,-18.91302 4.5287,-1.72952 8.2231,-0.80817 11.822,2.94827 4.3294,4.51889 3.6061,14.2571 -1.2521,16.8571 -1.4642,0.78365 -1.6745,1.76961 -1.6745,7.85207 0,4.28798 -0.3874,7.34327 -1.0099,7.96585 -1.6025,1.60241 -7.7656,1.25472 -9.38,-0.52916 z m -17.8139,-55.48112 c 0.6982,-7.47385 1.7769,-10.0064 5.6601,-13.28849 4.9879,-4.21587 9.6171,-5.7444 17.4939,-5.77644 7.9531,-0.0323 13.5184,1.84701 17.9598,6.06483 3.8165,3.62444 4.7642,6.244 4.7642,13.16872 v 6.35399 h -23.2437 -23.2436 z m -78.3728,-29.13579 c -3.0869,-3.08699 -3.6765,-4.20418 -3.6765,-6.96656 0,-5.53557 -5.1392,-1.17319 67.1695,-57.01683 l 38.9751,-30.10022 9.6701,7.42996 c 10.1179,7.77406 15.9924,12.32248 24.5421,19.00233 2.8142,2.19876 5.3349,3.99773 5.6015,3.99773 0.2666,0 0.4848,-2.08302 0.4848,-4.62895 v -4.62894 h 15.1493 15.1492 v 16.70477 16.70476 l 15.6266,12.05931 c 8.5946,6.63263 16.1693,12.8341 16.8325,13.78108 3.9062,5.57684 -2.77,15.65488 -10.3706,15.65488 -2.87009,0 -3.6006,-0.51127 -41.4525,-29.01092 -15.9662,-12.02141 -34.0434,-25.59205 -40.1716,-30.15698 l -11.1421,-8.29989 -19.9981,15.07629 c -56.0866,42.28285 -68.6535,51.64206 -70.9041,52.80586 -4.4278,2.28971 -7.4137,1.66375 -11.4852,-2.40768 z"
       id="path1181"
       inkscape:connector-curvature="0"
       inkscape:export-xdpi="24.690001"
       inkscape:export-ydpi="24.690001" />
  </g>
</svg>
